<svg width="40" height="40" viewBox="0 0 40 40" fill="none" xmlns="http://www.w3.org/2000/svg">
<path d="M20 40C31.0277 40 40 31.0277 40 20C40 8.97227 31.0277 0 20 0C8.97227 0 0 8.97227 0 20C0 31.0277 8.97227 40 20 40ZM20 1.99837C29.9266 1.99837 38.0016 10.0734 38.0016 20C38.0016 29.9266 29.9266 38.0016 20 38.0016C10.0734 38.0016 1.99837 29.9266 1.99837 20C1.99837 10.0734 10.0734 1.99837 20 1.99837Z" fill="white"/>
<path d="M11.3133 21.0033H26.2725L22.3574 24.9185C21.9658 25.31 21.9658 25.938 22.3574 26.3296C22.5531 26.5253 22.806 26.6232 23.067 26.6232C23.328 26.6232 23.5809 26.5253 23.7766 26.3296L29.3965 20.7096C29.788 20.3181 29.788 19.6901 29.3965 19.2986L23.7766 13.6786C23.3851 13.2871 22.757 13.2871 22.3655 13.6786C21.974 14.0702 21.974 14.6982 22.3655 15.0897L26.2807 19.0049H11.3133C10.7587 19.0049 10.3101 19.4535 10.3101 20.0082C10.3101 20.5628 10.7587 21.0033 11.3133 21.0033Z" fill="white"/>
</svg>
