<svg width="30" height="14" viewBox="0 0 30 14" fill="none" xmlns="http://www.w3.org/2000/svg">
<path d="M0.22917 7.57076L6.22394 13.7638C6.52843 14.0787 7.01689 14.0787 7.32139 13.7638C7.62589 13.4489 7.62589 12.9438 7.32139 12.6289L2.65245 7.80037L29.2197 7.80037C29.6511 7.80037 30 7.43955 30 6.99344C30 6.54733 29.6511 6.1865 29.2197 6.1865L2.65245 6.1865L7.32139 1.37113C7.62589 1.05623 7.62589 0.551077 7.32139 0.236176C7.16914 0.0787249 6.97249 0 6.76949 0C6.56649 0 6.36984 0.0787249 6.21759 0.236176L0.222826 6.4358C-0.075325 6.74414 -0.075325 7.25586 0.22917 7.57076Z" fill="#444444"/>
</svg>
