<svg width="30" height="30" viewBox="0 0 30 30" fill="none" xmlns="http://www.w3.org/2000/svg">
<path fill-rule="evenodd" clip-rule="evenodd" d="M0.286818 8.80207C0.0939105 8.89986 0.00623426 9.05157 0.00959236 9.28198C0.0125847 9.48949 0.128888 9.67036 0.307266 9.74487C0.478795 9.81655 29.5713 9.81422 29.71 9.74254C30.0927 9.54461 30.0958 9.00087 29.7153 8.80334L29.5688 8.72726H15.0016H0.434409L0.286818 8.80207ZM0.253537 14.8059C-0.0898207 14.9856 -0.082905 15.5445 0.265007 15.7349C0.364553 15.7893 1.18473 15.7931 14.9333 15.8016C28.1892 15.8098 29.5087 15.8058 29.6365 15.7576C30.0582 15.5985 30.1162 15.0425 29.7354 14.8103C29.6305 14.7463 29.4417 14.7455 14.9993 14.7454C0.904344 14.7452 0.365152 14.7475 0.253537 14.8059ZM8.46592 20.7916C8.28538 20.8875 8.20046 21.038 8.20046 21.262C8.20046 21.4859 8.28538 21.6364 8.46592 21.7324C8.578 21.7919 8.92594 21.7939 19.0735 21.7939H29.5652L29.7135 21.7191C30.0046 21.5723 30.0907 21.1996 29.8933 20.9408C29.8467 20.8797 29.7652 20.8072 29.7122 20.7798C29.6271 20.7358 28.3789 20.73 19.0988 20.73C8.92661 20.73 8.578 20.732 8.46592 20.7916Z" fill="black" />
</svg>
