<svg width="36" height="36" viewBox="0 0 36 36" fill="none" xmlns="http://www.w3.org/2000/svg">
<path d="M34.6849 7.02726C34.4493 5.88877 33.8997 4.86805 33.1145 4.08288C32.879 3.84733 32.6042 3.61178 32.2901 3.41549L32.2508 3.37623C32.2116 3.33697 32.1723 3.33697 32.1331 3.29771C32.0153 3.21919 31.8975 3.14068 31.7797 3.10142H31.7405C30.916 2.66957 30.0131 2.43402 28.9924 2.43402H26.5584V0.745911C26.5584 0.353326 26.2443 0 25.8125 0C25.4199 0 25.0665 0.314068 25.0665 0.745911V2.35551H10.9728V0.745911C10.9728 0.353326 10.6194 0 10.2268 0C9.83426 0 9.48094 0.314068 9.48094 0.745911V2.35551H7.04691C6.301 2.35551 5.55509 2.51254 4.8877 2.78735C4.14179 3.10142 3.47439 3.53326 2.92477 4.08288C2.61071 4.39695 2.3359 4.75027 2.10035 5.1036C1.8648 5.49618 1.6685 5.88877 1.51147 6.32061C1.43295 6.55616 1.35444 6.79171 1.31518 7.02726C1.23666 7.41985 1.1974 7.81243 1.1974 8.20502V12.1309V30.229C1.1974 31.8386 1.8648 33.2912 2.88552 34.3119C3.94549 35.3719 5.39806 36 6.9684 36H29.0316C30.6412 36 32.0938 35.3326 33.1145 34.3119C34.1745 33.2519 34.8026 31.7993 34.8026 30.229V12.1309V8.20502C34.8026 7.81243 34.7634 7.41985 34.6849 7.02726ZM2.72848 8.16576C2.72848 7.85169 2.76774 7.57688 2.807 7.30207C2.84626 7.02726 2.96403 6.75245 3.04255 6.47764C3.19958 6.12432 3.39588 5.81025 3.59217 5.53544C3.70994 5.37841 3.82772 5.26063 3.94549 5.1036C4.18105 4.86805 4.45585 4.67176 4.73066 4.47546C5.39806 4.08288 6.14397 3.84733 6.9684 3.84733H9.40242V5.45692C9.40242 5.84951 9.71649 6.20284 10.1483 6.20284C10.5409 6.20284 10.8942 5.88877 10.8942 5.45692V3.84733H25.1843V5.45692C25.1843 5.84951 25.4984 6.20284 25.9302 6.20284C26.3228 6.20284 26.6761 5.88877 26.6761 5.45692V3.84733H29.1102C29.9346 3.84733 30.7198 4.08288 31.3479 4.47546C31.6227 4.67176 31.8975 4.86805 32.1331 5.1036C32.7219 5.69248 33.1538 6.43839 33.3108 7.30207C33.3501 7.57688 33.3893 7.89095 33.3893 8.16576V11.385H2.72848V8.16576ZM33.4286 30.1898C33.4286 31.4068 32.9575 32.506 32.1723 33.2912C31.3872 34.0763 30.2879 34.5474 29.1102 34.5474H7.04691C5.86916 34.5474 4.76992 34.0763 3.98475 33.2912C3.19958 32.506 2.72848 31.4068 2.72848 30.229V12.8375H33.4286V30.1898Z" fill="#BABABA"/>
</svg>
