<svg width="80" height="80" viewBox="0 0 80 80" fill="none" xmlns="http://www.w3.org/2000/svg">
<g filter="url(#filter0_i_110_2750)">
<path d="M72 0H8C3.6 0 0 3.60267 0 8V72C0 76.3947 3.6 80 8 80H72C76.4 80 80 76.3947 80 72V8C80 3.60267 76.4 0 72 0ZM21.5893 70.4053H9.33333V59.504H21.5893V70.4053ZM21.5893 55.848H9.33333V44.952H21.5893V55.848ZM20.6667 12.1253C18.792 12.1253 17.272 10.608 17.272 8.73067C17.272 6.85333 18.792 5.33333 20.6667 5.33333C22.5413 5.33333 24.0613 6.85067 24.0613 8.728C24.0613 10.6053 22.5413 12.1253 20.6667 12.1253ZM37.944 70.4053H25.6907V59.504H37.944V70.4053ZM37.944 55.848H25.6907V44.952H37.944V55.848ZM37.944 41.3013H25.6907V30.4053H37.944V41.3013ZM36.6053 8.728C36.6053 6.85067 38.1253 5.33333 40 5.33333C41.8747 5.33333 43.3947 6.85067 43.3947 8.728C43.3947 10.6053 41.8747 12.1227 40 12.1227C38.1253 12.1227 36.6053 10.608 36.6053 8.728ZM54.3093 55.848H42.0533V44.952H54.312V55.848H54.3093ZM54.3093 41.3013H42.0533V30.4053H54.312V41.3013H54.3093ZM55.9387 8.728C55.9387 6.85067 57.4587 5.33333 59.3333 5.33333C61.208 5.33333 62.728 6.85067 62.728 8.728C62.728 10.6053 61.208 12.1227 59.3333 12.1227C57.4587 12.1227 55.9387 10.608 55.9387 8.728ZM70.6667 55.848H58.4107V44.952H70.6667V55.848ZM70.6667 41.3013H58.4107V30.4053H70.6667V41.3013Z" fill="#6E6D6D"/>
</g>
<defs>
<filter id="filter0_i_110_2750" x="0" y="0" width="80" height="84" filterUnits="userSpaceOnUse" color-interpolation-filters="sRGB">
<feFlood flood-opacity="0" result="BackgroundImageFix"/>
<feBlend mode="normal" in="SourceGraphic" in2="BackgroundImageFix" result="shape"/>
<feColorMatrix in="SourceAlpha" type="matrix" values="0 0 0 0 0 0 0 0 0 0 0 0 0 0 0 0 0 0 127 0" result="hardAlpha"/>
<feOffset dy="4"/>
<feGaussianBlur stdDeviation="2"/>
<feComposite in2="hardAlpha" operator="arithmetic" k2="-1" k3="1"/>
<feColorMatrix type="matrix" values="0 0 0 0 0 0 0 0 0 0 0 0 0 0 0 0 0 0 0.25 0"/>
<feBlend mode="normal" in2="shape" result="effect1_innerShadow_110_2750"/>
</filter>
</defs>
</svg>
