<svg width="80" height="80" viewBox="0 0 80 80" fill="none" xmlns="http://www.w3.org/2000/svg">
<g clip-path="url(#clip0_110_2737)" filter="url(#filter0_i_110_2737)">
<path d="M57.931 33.1033C60.9781 33.1033 63.4483 30.6332 63.4483 27.5861C63.4483 24.539 60.9781 22.0688 57.931 22.0688C54.884 22.0688 52.4138 24.539 52.4138 27.5861C52.4138 30.6332 54.884 33.1033 57.931 33.1033Z" fill="#6E6D6D"/>
<path d="M74.4828 33.1033C77.5299 33.1033 80 30.6332 80 27.5861C80 24.539 77.5299 22.0688 74.4828 22.0688C71.4357 22.0688 68.9656 24.539 68.9656 27.5861C68.9656 30.6332 71.4357 33.1033 74.4828 33.1033Z" fill="#6E6D6D"/>
<path d="M41.3793 33.1033C44.4264 33.1033 46.8966 30.6332 46.8966 27.5861C46.8966 24.539 44.4264 22.0688 41.3793 22.0688C38.3322 22.0688 35.8621 24.539 35.8621 27.5861C35.8621 30.6332 38.3322 33.1033 41.3793 33.1033Z" fill="#6E6D6D"/>
<path d="M33.1269 46.8731C25.4911 39.2372 23.7669 31.6014 23.378 28.542C23.2693 27.6961 23.5604 26.8478 24.1656 26.2469L30.3449 20.0703C31.2539 19.1619 31.4152 17.7462 30.7338 16.6565L20.8952 1.37929C20.1414 0.172732 18.5937 -0.262726 17.3214 0.373768L1.52694 7.81239C0.498051 8.31902 -0.107125 9.41219 0.00969353 10.5531C0.83728 18.4151 4.26486 37.742 23.258 56.7365C42.2511 75.731 61.5752 79.1572 69.4414 79.9848C70.5823 80.1016 71.6755 79.4965 72.1821 78.4676L79.6207 62.6731C80.2548 61.4035 79.8223 59.86 78.6207 59.1048L63.3435 49.2689C62.2545 48.5869 60.8388 48.7471 59.9297 49.6552L53.7531 55.8345C53.1522 56.4396 52.3039 56.7307 51.458 56.622C48.3987 56.2331 40.7628 54.5089 33.1269 46.8731Z" fill="#6E6D6D"/>
</g>
<defs>
<filter id="filter0_i_110_2737" x="0" y="0" width="80" height="84" filterUnits="userSpaceOnUse" color-interpolation-filters="sRGB">
<feFlood flood-opacity="0" result="BackgroundImageFix"/>
<feBlend mode="normal" in="SourceGraphic" in2="BackgroundImageFix" result="shape"/>
<feColorMatrix in="SourceAlpha" type="matrix" values="0 0 0 0 0 0 0 0 0 0 0 0 0 0 0 0 0 0 127 0" result="hardAlpha"/>
<feOffset dy="4"/>
<feGaussianBlur stdDeviation="2"/>
<feComposite in2="hardAlpha" operator="arithmetic" k2="-1" k3="1"/>
<feColorMatrix type="matrix" values="0 0 0 0 0 0 0 0 0 0 0 0 0 0 0 0 0 0 0.25 0"/>
<feBlend mode="normal" in2="shape" result="effect1_innerShadow_110_2737"/>
</filter>
<clipPath id="clip0_110_2737">
<rect width="80" height="80" fill="white"/>
</clipPath>
</defs>
</svg>
