<svg width="16" height="16" viewBox="0 0 16 16" fill="none" xmlns="http://www.w3.org/2000/svg">
<g clip-path="url(#clip0_661_462)">
<path d="M8.93757 8.00505L15.7961 1.1465C16.0608 0.890852 16.0682 0.469032 15.8125 0.204322C15.5569 -0.0603889 15.135 -0.0677289 14.8703 0.187924C14.8648 0.193273 14.8593 0.198739 14.8539 0.204322L7.99535 7.06287L1.1368 0.204283C0.872091 -0.05137 0.450272 -0.0440299 0.194619 0.220681C-0.0547872 0.47891 -0.0547872 0.888275 0.194619 1.1465L7.05317 8.00505L0.194619 14.8636C-0.065524 15.1238 -0.065524 15.5456 0.194619 15.8058C0.454801 16.0659 0.87662 16.0659 1.1368 15.8058L7.99535 8.94723L14.8539 15.8058C15.1186 16.0614 15.5404 16.0541 15.7961 15.7894C16.0455 15.5311 16.0455 15.1218 15.7961 14.8636L8.93757 8.00505Z" fill="white"/>
</g>
<defs>
<clipPath id="clip0_661_462">
<rect width="16" height="16" fill="white"/>
</clipPath>
</defs>
</svg>
