<svg width="37" height="37" viewBox="0 0 37 37" fill="none" xmlns="http://www.w3.org/2000/svg">
<g clip-path="url(#clip0_189_552)">
<path d="M33.848 9.07275H13.2056C11.4674 9.07275 10.0532 10.4868 10.0532 12.2251V25.2053C10.0532 26.9435 11.4673 28.3576 13.2056 28.3576H27.674C27.8287 28.3576 27.9724 28.4272 28.0684 28.5487L32.7407 34.4639C32.9249 34.697 33.1935 34.824 33.4749 34.824C33.5794 34.824 33.6858 34.8065 33.7902 34.7702C34.1751 34.6365 34.4239 34.2868 34.4239 33.8793V28.3038C35.8854 28.0308 37.0004 26.7386 37.0004 25.2053V12.2251C37.0004 10.4868 35.5863 9.07275 33.848 9.07275ZM35.9164 25.2053C35.9164 26.3309 35.0005 27.2585 33.8749 27.2728C33.5783 27.2766 33.3398 27.5181 33.3398 27.8148V33.4735L28.919 27.8768C28.6163 27.4934 28.1625 27.2736 27.674 27.2736H13.2056C12.0651 27.2736 11.1372 26.3457 11.1372 25.2052V12.2251C11.1372 11.0846 12.065 10.1567 13.2056 10.1567H33.848C34.9885 10.1567 35.9164 11.0846 35.9164 12.2251V25.2053Z" fill="#BABABA"/>
<path d="M7.98492 18.0345C7.6142 18.0872 7.28221 18.278 7.05009 18.5718L3.32689 23.2854V18.5614C3.32689 18.2647 3.08842 18.0232 2.79184 18.0194C1.85014 18.0074 1.08398 17.2315 1.08398 16.2897V4.99017C1.08398 4.03604 1.86026 3.25977 2.81438 3.25977H20.7842C21.7383 3.25977 22.5146 4.03604 22.5146 4.99017V7.08095C22.5146 7.38028 22.7572 7.62295 23.0566 7.62295C23.3559 7.62295 23.5986 7.38028 23.5986 7.08095V4.99017C23.5986 3.43833 22.336 2.17578 20.7842 2.17578H2.81438C1.26255 2.17578 0 3.43833 0 4.99017V16.2897C0 17.6387 0.966264 18.7784 2.24298 19.0447V23.8407C2.24298 24.2258 2.47799 24.5562 2.84177 24.6825C2.94042 24.7168 3.04087 24.7334 3.13972 24.7334C3.40545 24.7334 3.65946 24.6133 3.8334 24.3931L7.9008 19.2438C7.95948 19.1694 8.04352 19.1211 8.13733 19.1078C8.43369 19.0657 8.63986 18.7913 8.59773 18.4949C8.55567 18.1986 8.28171 17.9923 7.98492 18.0345Z" fill="#BABABA"/>
</g>
<defs>
<clipPath id="clip0_189_552">
<rect width="37" height="37" fill="white"/>
</clipPath>
</defs>
</svg>
