<svg width="36" height="36" viewBox="0 0 36 36" fill="none" xmlns="http://www.w3.org/2000/svg">
<path d="M18 36C8.0745 36 0 27.9255 0 18C0 8.0745 8.0745 0 18 0C27.9255 0 36 8.0745 36 18C36 27.9255 27.9255 36 18 36ZM18 1.5C8.9025 1.5 1.5 8.9025 1.5 18C1.5 27.0975 8.9025 34.5 18 34.5C27.0975 34.5 34.5 27.0975 34.5 18C34.5 8.9025 27.0975 1.5 18 1.5Z" fill="#BABABA"/>
<path d="M26.25 27.0001C26.058 27.0001 25.866 26.9266 25.719 26.7811L17.469 18.5311C17.3295 18.3901 17.25 18.1996 17.25 18.0001V6.75012C17.25 6.33612 17.586 6.00012 18 6.00012C18.414 6.00012 18.75 6.33612 18.75 6.75012V17.6896L26.781 25.7206C27.0735 26.0131 27.0735 26.4886 26.781 26.7811C26.634 26.9266 26.442 27.0001 26.25 27.0001Z" fill="#BABABA"/>
</svg>
