<svg width="25" height="25" viewBox="0 0 25 25" fill="none" xmlns="http://www.w3.org/2000/svg">
<g clip-path="url(#clip0_145_7552)">
<path d="M13.8605 12.5069L23.8115 2.55585C24.1956 2.18492 24.2062 1.57291 23.8353 1.18884C23.4644 0.804775 22.8524 0.794125 22.4683 1.16505C22.4603 1.17281 22.4523 1.18074 22.4445 1.18884L12.4934 11.1399L2.54242 1.18879C2.15835 0.81786 1.54634 0.82851 1.17541 1.21258C0.813552 1.58724 0.813552 2.18118 1.17541 2.55585L11.1264 12.5069L1.17541 22.4579C0.797974 22.8354 0.797974 23.4474 1.17541 23.8249C1.55291 24.2023 2.16492 24.2023 2.54242 23.8249L12.4934 13.8739L22.4445 23.8249C22.8285 24.1958 23.4405 24.1852 23.8115 23.8011C24.1733 23.4264 24.1733 22.8325 23.8115 22.4579L13.8605 12.5069Z" fill="#6E6D6D"/>
</g>
<defs>
<clipPath id="clip0_145_7552">
<rect width="23.2143" height="23.2143" fill="white" transform="translate(0.892822 0.892822)"/>
</clipPath>
</defs>
</svg>
