<svg width="33" height="33" viewBox="0 0 33 33" fill="none" xmlns="http://www.w3.org/2000/svg">
<g clip-path="url(#clip0_180_16234)">
<path d="M12.1335 19.3553V19.2053H11.9835H8.99642C8.22408 19.2053 7.59556 18.5765 7.59556 17.8044V12.8559C7.59556 12.0836 8.22407 11.4551 8.99642 11.4551H11.9835H12.1335V11.3051V8.82704C12.1335 6.40177 12.8945 4.35141 14.3219 2.88683L14.3219 2.88682C15.7553 1.41589 17.763 0.632937 20.139 0.63291C20.139 0.63291 20.139 0.63291 20.1391 0.63291L24.0436 0.639252C24.8145 0.640574 25.442 1.26912 25.442 2.04012V6.63466C25.442 7.40706 24.8137 8.03553 24.0416 8.03553H24.0416L21.4126 8.0365C21.4126 8.0365 21.4126 8.0365 21.4126 8.0365C20.6019 8.03651 20.3395 8.19683 20.2507 8.29704L20.2504 8.29739C20.1895 8.36658 20.143 8.47431 20.1103 8.63301C20.0771 8.79427 20.0554 9.02252 20.0554 9.34709V11.3048V11.4548H20.2054H23.844C24.0936 11.4548 24.3336 11.5164 24.5383 11.6307C24.983 11.8792 25.2593 12.349 25.2593 12.8561C25.2593 12.8561 25.2593 12.8562 25.2593 12.8562L25.2573 17.8046V17.8046C25.2573 18.5765 24.6289 19.205 23.8565 19.205H20.2054H20.0554V19.355V30.9036C20.0554 31.6759 19.4267 32.3044 18.6543 32.3044H13.5344C12.762 32.3044 12.1335 31.6759 12.1335 30.9036V19.3553ZM13.7078 30.5801V30.7301H13.8578H18.3309H18.4809V30.5801V18.5162C18.4809 18.028 18.8784 17.6307 19.3663 17.6307H23.533H23.683L23.683 17.4808L23.6847 13.1794L23.6848 13.0294H23.5347H19.3661C18.8782 13.0294 18.4809 12.6321 18.4809 12.1439V9.34709C18.4809 8.61785 18.5575 7.83637 19.0704 7.25546L19.0705 7.25543C19.6905 6.55303 20.679 6.46219 21.4121 6.46219H21.4122L23.7178 6.46122L23.8677 6.46115V6.31122V2.36307V2.21332L23.7179 2.21307L20.1379 2.20722H20.1376C18.1684 2.20722 16.5568 2.83827 15.4377 3.99118C14.3191 5.14358 13.7078 6.80161 13.7078 8.82704V12.1439C13.7078 12.6319 13.3105 13.0294 12.8226 13.0294H9.31986H9.16986V13.1794V17.4807V17.6307H9.31986H12.8226C13.3105 17.6307 13.7078 18.028 13.7078 18.5162V30.5801ZM24.0404 2.21356H24.0402V2.36356V2.51356H24.0404V2.36356V2.21356Z" fill="white" stroke="#817474" stroke-width="0.3"/>
</g>
<defs>
<clipPath id="clip0_180_16234">
<rect width="31.9091" height="31.9715" fill="white" transform="translate(0.545471 0.54541)"/>
</clipPath>
</defs>
</svg>
