<svg width="30" height="30" viewBox="0 0 30 30" fill="none" xmlns="http://www.w3.org/2000/svg">
<g clip-path="url(#clip0_179_14319)">
<path d="M21.8161 30C21.6061 30 21.3911 29.9737 21.1786 29.9175L1.8499 24.7412C0.524897 24.3762 -0.265103 23.0037 0.0823969 21.6787L2.52115 12.5887C2.61115 12.255 2.95365 12.0612 3.28615 12.1462C3.6199 12.235 3.8174 12.5787 3.72865 12.9112L1.29115 21.9987C1.1174 22.6612 1.5149 23.3512 2.17865 23.535L21.4999 28.7087C22.1636 28.8837 22.8486 28.4887 23.0211 27.8287L23.9974 24.2112C24.0874 23.8775 24.4299 23.6787 24.7636 23.77C25.0974 23.86 25.2936 24.2037 25.2049 24.5362L24.2299 28.1487C23.9361 29.2612 22.9236 30 21.8161 30Z" fill="white"/>
<path d="M27.5 22.5H7.5C6.12125 22.5 5 21.3787 5 20V5C5 3.62125 6.12125 2.5 7.5 2.5H27.5C28.8787 2.5 30 3.62125 30 5V20C30 21.3787 28.8787 22.5 27.5 22.5ZM7.5 3.75C6.81125 3.75 6.25 4.31125 6.25 5V20C6.25 20.6887 6.81125 21.25 7.5 21.25H27.5C28.1887 21.25 28.75 20.6887 28.75 20V5C28.75 4.31125 28.1887 3.75 27.5 3.75H7.5Z" fill="white"/>
<path d="M11.25 11.25C9.87125 11.25 8.75 10.1287 8.75 8.75C8.75 7.37125 9.87125 6.25 11.25 6.25C12.6287 6.25 13.75 7.37125 13.75 8.75C13.75 10.1287 12.6287 11.25 11.25 11.25ZM11.25 7.5C10.5612 7.5 10 8.06125 10 8.75C10 9.43875 10.5612 9.99999 11.25 9.99999C11.9387 9.99999 12.5 9.43875 12.5 8.75C12.5 8.06125 11.9387 7.5 11.25 7.5Z" fill="white"/>
<path d="M5.71247 21.1625C5.55247 21.1625 5.39247 21.1012 5.26997 20.98C5.02622 20.7362 5.02622 20.34 5.26997 20.0962L11.1737 14.1925C11.8812 13.485 13.1175 13.485 13.825 14.1925L15.5825 15.95L20.4475 10.1125C20.8012 9.68875 21.3212 9.4425 21.875 9.4375H21.8887C22.4362 9.4375 22.955 9.675 23.3125 10.0912L29.8499 17.7187C30.0749 17.98 30.0449 18.375 29.7824 18.6C29.5212 18.825 29.1274 18.7962 28.9012 18.5325L22.3637 10.905C22.2425 10.765 22.075 10.6875 21.8887 10.6875C21.7587 10.6762 21.53 10.7662 21.4087 10.9125L16.105 17.2762C15.9925 17.4112 15.8287 17.4925 15.6525 17.5C15.475 17.5125 15.3062 17.4425 15.1825 17.3175L12.9412 15.0762C12.705 14.8412 12.2937 14.8412 12.0575 15.0762L6.15372 20.98C6.03247 21.1012 5.87247 21.1625 5.71247 21.1625Z" fill="white"/>
</g>
<defs>
<clipPath id="clip0_179_14319">
<rect width="30" height="30" fill="white"/>
</clipPath>
</defs>
</svg>
