<svg width="40" height="40" viewBox="0 0 40 40" fill="none" xmlns="http://www.w3.org/2000/svg">
<g clip-path="url(#clip0_533_138)">
<path d="M39.8087 20.4279C38.6879 21.3355 36.9353 22.6244 35.058 23.5076C31.8777 25.0036 29.4141 25.627 25.8308 25.627C23.5455 25.627 21.3165 24.5439 20.0001 22.6712C18.684 24.5437 16.4549 25.627 14.1694 25.627C10.586 25.627 8.12244 25.0036 4.94227 23.5076C3.06479 22.6244 1.31221 21.3357 0.191404 20.4279C-0.200041 20.111 0.0526682 19.4786 0.554628 19.518C2.63111 19.6805 6.25552 19.7847 8.6599 18.8529C12.1986 17.4814 13.1839 15.6944 14.3038 15.0295C14.4595 14.937 14.6228 14.8559 14.7888 14.7846C16.1591 14.1963 17.7826 14.2262 19.0742 14.9515C19.3924 15.1303 19.7103 15.3574 20 15.6421C20.2898 15.3574 20.6075 15.1303 20.9258 14.9515C22.2175 14.2262 23.8409 14.1963 25.2111 14.7846C25.3771 14.8558 25.5405 14.937 25.6961 15.0295C26.816 15.6944 27.8014 17.4815 31.34 18.8529C33.7444 19.7847 37.3686 19.6805 39.4451 19.518C39.9474 19.4788 40.2 20.1111 39.8087 20.4279Z" fill="#444444"/>
</g>
<defs>
<clipPath id="clip0_533_138">
<rect width="40" height="40" fill="white"/>
</clipPath>
</defs>
</svg>
