<svg width="200" height="200" viewBox="0 0 200 200" fill="none" xmlns="http://www.w3.org/2000/svg">
<g filter="url(#filter0_i_72_6888)">
<circle cx="100" cy="100" r="89" stroke="#A99797" stroke-width="22"/>
</g>
<g filter="url(#filter1_i_72_6888)">
<path fill-rule="evenodd" clip-rule="evenodd" d="M80.9024 52.3414C79.8423 52.9012 79.3312 54.4334 79.8639 55.4544C79.9877 55.6919 80.4843 56.3525 80.9675 56.9224C82.585 58.8306 83.0443 60.727 82.2596 62.258C82.0591 62.6491 81.165 63.6718 80.2725 64.5305C77.5099 67.189 76.6534 68.8701 76.6399 71.6594C76.6332 73.0328 76.7033 73.4967 77.0842 74.5954C77.7862 76.6203 79.524 79.1739 80.6858 79.8878C81.9795 80.6828 83.5752 80.3124 84.2089 79.07C84.8127 77.8865 84.6098 77.0601 83.3765 75.6787C81.6473 73.742 81.1061 71.6991 81.9073 70.1328C82.1074 69.7416 83.0012 68.7189 83.8938 67.8602C86.3674 65.4796 87.3427 63.7435 87.5679 61.3188C87.7804 59.032 86.7157 56.1061 84.8474 53.8423C83.3849 52.0701 82.2408 51.6348 80.9024 52.3414ZM96.597 52.3071C95.7857 52.7382 95.2948 53.5291 95.2948 54.405C95.2948 55.2767 95.4256 55.536 96.5093 56.8135C97.6251 58.1287 98.1222 59.1862 98.201 60.4118C98.2901 61.798 97.8639 62.6236 96.2993 64.0944C93.3063 66.9083 92.1957 68.9768 92.1957 71.7377C92.1957 74.2874 93.8268 77.7582 95.8668 79.5492C97.0586 80.5957 98.5631 80.5713 99.5124 79.49C100.511 78.3524 100.35 77.2153 98.966 75.6278C97.6972 74.1729 97.1819 73.0509 97.1818 71.741C97.1816 71.0248 97.2785 70.4996 97.4804 70.1222C97.6446 69.815 98.6349 68.7141 99.6807 67.6755C102.089 65.2844 102.921 63.7758 103.201 61.2925C103.477 58.8381 101.97 55.262 99.7546 53.1153C98.5641 51.9617 97.6753 51.7341 96.597 52.3071ZM112.421 52.1879C111.323 52.6245 110.631 53.9301 110.927 55.0048C111.011 55.3062 111.519 56.094 112.058 56.7556C113.302 58.2839 113.74 59.1632 113.848 60.3463C113.976 61.7659 113.441 62.7328 111.587 64.4268C108.945 66.8421 107.854 68.9776 107.854 71.7374C107.854 74.3279 109.033 77.0009 111.106 79.1087C112.039 80.0568 112.275 80.2113 112.943 80.3085C114.643 80.5563 116.037 79.0431 115.677 77.3424C115.616 77.0589 115.125 76.2882 114.584 75.6298C113.345 74.121 112.896 73.231 112.791 72.0731C112.658 70.609 113.1 69.809 115.117 67.8599C117.767 65.2997 118.613 63.7124 118.743 61.0575C118.858 58.7119 118.078 56.437 116.429 54.3106C114.802 52.2132 113.754 51.658 112.421 52.1879ZM65.3646 88.1189C64.7647 88.3854 64.2206 88.9598 63.9892 89.571C63.7584 90.1802 63.7574 103.476 63.988 105.993C64.8641 115.558 69.9323 123.963 78.2398 129.628L79.6977 130.623H72.7286C66.1208 130.623 65.7267 130.639 65.1307 130.943C64.6895 131.168 64.3937 131.488 64.1389 132.014C63.5698 133.189 63.8698 134.239 65.0197 135.098L65.4702 135.434L97.5494 135.475C127.842 135.514 129.66 135.501 130.196 135.231C131.834 134.406 131.96 132.009 130.419 130.998C130.009 130.73 129.357 130.697 122.891 130.623L115.812 130.541L117.255 129.562C124.44 124.688 129.144 117.731 130.979 109.261C131.38 107.412 131.388 107.229 131.457 98.4905L131.528 89.6012L131.146 89.0303C130.936 88.7163 130.509 88.3311 130.196 88.1743C129.662 87.9055 127.781 87.8894 97.7414 87.8952C71.5317 87.9003 65.7669 87.9401 65.3646 88.1189ZM136.487 92.4203C136.438 92.4696 136.398 93.5823 136.398 94.893V97.2762L137.482 97.7487C140.975 99.2705 142.801 103.348 141.651 107.058C140.928 109.388 138.572 111.507 136.12 112.033L135.33 112.203L135.022 113.298C134.853 113.901 134.506 114.942 134.251 115.613C133.996 116.284 133.788 116.922 133.788 117.031C133.788 117.305 135.773 117.15 137.458 116.743C142.676 115.484 146.447 111.026 146.924 105.549C147.125 103.248 146.423 100.287 145.193 98.2426C144.09 96.4099 141.946 94.415 140.068 93.473C138.893 92.8842 136.675 92.2321 136.487 92.4203Z" fill="#6E6D6D"/>
</g>
<defs>
<filter id="filter0_i_72_6888" x="0" y="0" width="200" height="204" filterUnits="userSpaceOnUse" color-interpolation-filters="sRGB">
<feFlood flood-opacity="0" result="BackgroundImageFix"/>
<feBlend mode="normal" in="SourceGraphic" in2="BackgroundImageFix" result="shape"/>
<feColorMatrix in="SourceAlpha" type="matrix" values="0 0 0 0 0 0 0 0 0 0 0 0 0 0 0 0 0 0 127 0" result="hardAlpha"/>
<feOffset dy="4"/>
<feGaussianBlur stdDeviation="2"/>
<feComposite in2="hardAlpha" operator="arithmetic" k2="-1" k3="1"/>
<feColorMatrix type="matrix" values="0 0 0 0 0 0 0 0 0 0 0 0 0 0 0 0 0 0 0.25 0"/>
<feBlend mode="normal" in2="shape" result="effect1_innerShadow_72_6888"/>
</filter>
<filter id="filter1_i_72_6888" x="63" y="52" width="84" height="88" filterUnits="userSpaceOnUse" color-interpolation-filters="sRGB">
<feFlood flood-opacity="0" result="BackgroundImageFix"/>
<feBlend mode="normal" in="SourceGraphic" in2="BackgroundImageFix" result="shape"/>
<feColorMatrix in="SourceAlpha" type="matrix" values="0 0 0 0 0 0 0 0 0 0 0 0 0 0 0 0 0 0 127 0" result="hardAlpha"/>
<feOffset dy="4"/>
<feGaussianBlur stdDeviation="2"/>
<feComposite in2="hardAlpha" operator="arithmetic" k2="-1" k3="1"/>
<feColorMatrix type="matrix" values="0 0 0 0 0 0 0 0 0 0 0 0 0 0 0 0 0 0 0.25 0"/>
<feBlend mode="normal" in2="shape" result="effect1_innerShadow_72_6888"/>
</filter>
</defs>
</svg>
