<svg width="40" height="40" viewBox="0 0 40 40" fill="none" xmlns="http://www.w3.org/2000/svg">
<path fill-rule="evenodd" clip-rule="evenodd" d="M0.22837 2.23035C0.0725032 2.38757 0 2.53967 0 2.70927C0 2.87886 0.0725032 3.03096 0.22837 3.18818L0.456739 3.41853H3.73954C5.54509 3.41853 7.04086 3.4488 7.06359 3.48583C7.08625 3.52287 8.42201 7.64545 10.0319 12.6472C11.6418 17.6489 13.3468 22.9447 13.8207 24.4156C14.3733 26.1307 14.7402 27.1483 14.8436 27.2527C15.0047 27.4152 15.0204 27.4155 25.9274 27.4548L36.8498 27.4942L37.1287 27.7088C37.7318 28.1728 37.9967 29.3816 37.6956 30.296C37.5302 30.7984 37.0692 31.2896 36.7052 31.3514C36.5632 31.3755 31.6362 31.4219 25.7564 31.4543L15.0659 31.5134L14.8379 31.7708C14.5352 32.1126 14.5353 32.4353 14.8384 32.741L15.0668 32.9713L18.1784 32.9654C19.8898 32.9621 24.8282 32.9335 29.1527 32.9017L37.0155 32.844L37.5279 32.5896C39.8808 31.4212 39.8346 27.291 37.4566 26.2163C37.2213 26.11 36.858 26.0684 35.8925 26.0374L34.6351 25.9969L37.3167 17.6827C38.7915 13.1099 39.999 9.30466 40 9.22664C40.0026 9.02072 39.7956 8.64993 39.6336 8.57025C39.5567 8.53242 32.9171 8.48388 24.8489 8.46221L10.2039 8.4228L9.20736 5.34931C8.47686 3.09653 8.16575 2.23902 8.04223 2.13791C7.88699 2.01088 7.5808 2 4.16518 2H0.456739L0.22837 2.23035ZM19.3037 13.8939L19.5321 14.1242V17.9979V21.8716L19.3037 22.102C19.0595 22.3483 18.7808 22.3959 18.4918 22.2407C18.1249 22.0436 18.1309 22.1134 18.1283 17.9747L18.1258 14.0504L18.3176 13.857C18.5947 13.5774 19.0053 13.5928 19.3037 13.8939ZM24.8491 13.7447C25.2271 13.9487 25.2355 14.0393 25.2355 17.9428C25.2355 20.3471 25.2067 21.6828 25.1515 21.8425C24.9332 22.4742 24.0916 22.4984 23.8377 21.8803C23.7715 21.7191 23.7525 20.6164 23.7684 17.8511L23.7901 14.0438L24.0093 13.8537C24.2415 13.6522 24.5934 13.6065 24.8491 13.7447ZM30.6585 13.906L30.8607 14.1484V18.01V21.8716L30.6324 22.102C30.4765 22.2592 30.3257 22.3323 30.1576 22.3323C29.9895 22.3323 29.8387 22.2592 29.6828 22.102L29.4544 21.8716V17.9753V14.079L29.6604 13.8712C29.962 13.567 30.3881 13.5818 30.6585 13.906ZM18.3455 33.4462C17.8417 33.5319 17.0734 33.9613 16.7571 34.3342C15.9985 35.228 15.834 36.4849 16.3435 37.4923C16.5857 37.9711 17.1633 38.5425 17.6472 38.7819C18.0331 38.9729 18.1773 38.9994 18.829 38.9998C19.4705 39 19.6316 38.9715 20.0162 38.7897C20.583 38.5216 21.084 38.0164 21.3745 37.4197C21.5753 37.007 21.6025 36.8661 21.6025 36.2402C21.6025 35.5954 21.5785 35.4801 21.3452 35.0021C20.7902 33.8648 19.5788 33.2365 18.3455 33.4462ZM34.5539 33.4484C33.7006 33.6183 32.9309 34.2091 32.5348 34.9984C32.3299 35.4066 32.3063 35.5313 32.3062 36.2024C32.3061 36.8492 32.3345 37.0122 32.5147 37.4C32.7808 37.9727 33.3247 38.5212 33.8924 38.7897C34.2769 38.9715 34.4385 39.0001 35.0797 39C35.745 38.9999 35.8686 38.976 36.2733 38.7694C36.5215 38.6427 36.8844 38.3667 37.0796 38.1561C38.6117 36.504 37.7321 33.8653 35.5114 33.4512C35.0012 33.356 35.0176 33.3561 34.5539 33.4484Z" fill="#444444"/>
</svg>
