<svg width="86" height="92" viewBox="0 0 86 92" fill="none" xmlns="http://www.w3.org/2000/svg">
<path d="M25.7249 29.9407L29.6187 26.047L27.9999 24.272L24.2827 27.9892L25.7249 29.9407Z" fill="#6E6D6D"/>
<path d="M22.4046 25.4485L25.8937 21.961L24.2749 20.186L20.9624 23.497L22.4046 25.4485Z" fill="#6E6D6D"/>
<path d="M19.0843 20.9562L22.1671 17.8734L20.5483 16.0984L17.6421 19.0046L19.0843 20.9562Z" fill="#6E6D6D"/>
<path d="M15.764 16.4643L18.4405 13.7861L16.8218 12.0127L14.3218 14.5127L15.764 16.4643Z" fill="#6E6D6D"/>
<path d="M36.9625 34.1016L35.4516 32.4453L32.7 35.1969C34.2219 35.3 35.7094 34.9094 36.9625 34.1016V34.1016Z" fill="#6E6D6D"/>
<path d="M29.3969 34.0813L33.3438 30.1329L31.725 28.3579L27.6125 32.4704C28.1125 33.1188 28.7235 33.6501 29.3969 34.0813V34.0813Z" fill="#6E6D6D"/>
<path d="M10.989 5.61411L9.37022 3.83911L7.68115 5.52974L9.12334 7.47974L10.989 5.61411Z" fill="#6E6D6D"/>
<path d="M31.1423 83.9298C29.8594 82.4407 29.136 80.5032 29.0532 78.3251C28.9719 76.2063 28.3485 74.1313 27.2501 72.3251C25.4969 69.4423 25.7563 65.4235 27.8548 62.9782L29.2907 61.3032C30.5266 59.861 32.0594 58.747 33.7563 58.0017L30.1969 57.4079C29.4141 57.2782 28.6719 57.0235 27.9813 56.6782L23.4813 62.2063C21.5954 64.5235 18.8063 66.0235 15.8313 66.322C9.87975 66.9142 4.986 71.3954 4.19382 76.9751C3.62194 81.0063 4.94382 84.9329 7.82194 87.7485C10.7001 90.5642 14.6641 91.7954 18.6923 91.1392C20.7141 90.8063 22.6485 89.9454 24.286 88.6517C26.1641 87.1688 28.8438 87.3188 30.5173 88.9954L32.3219 90.8001C32.6532 91.1313 33.0923 91.3126 33.561 91.3126C34.5266 91.3126 35.3126 90.5267 35.3126 89.561C35.3126 89.0501 35.1282 88.5532 34.7938 88.1657L31.1423 83.9298ZM16.5626 86.6251C12.2485 86.6251 8.75007 83.1267 8.75007 78.8126C8.75007 74.4985 12.2485 71.0001 16.5626 71.0001C20.8766 71.0001 24.3751 74.4985 24.3751 78.8126C24.3751 83.1267 20.8766 86.6251 16.5626 86.6251Z" fill="#6E6D6D"/>
<path d="M72.7843 12.0671C73.8249 10.4546 74.3749 8.58901 74.3749 6.6687C74.3749 4.82964 73.8328 3.07339 72.8265 1.58276L43.9218 37.0953L51.3687 45.2625L72.7843 12.0671Z" fill="#6E6D6D"/>
<path d="M14.7155 9.70005L13.0968 7.92505L11.0015 10.0204L12.4437 11.9719L14.7155 9.70005Z" fill="#6E6D6D"/>
<path d="M85.125 90.7328L78.1969 87.9625C75.9594 87.0672 74.7813 84.6172 75.4563 82.2656C75.9328 80.6047 76.0563 78.8734 75.8266 77.1203C75.0875 71.4672 70.2453 66.9312 64.3109 66.3375C61.2578 66.0312 58.4078 64.4812 56.4906 62.0844L56.1172 61.6156C54.7922 59.9625 54.0625 57.8812 54.0625 55.7594V53.4594C54.0625 53.0687 53.9172 52.6969 53.6547 52.4078L39.0813 36.425C37.3625 37.6625 35.3 38.3422 33.1672 38.3422C32.9156 38.3422 32.6625 38.3328 32.4094 38.3141C29.4609 38.0937 26.7641 36.6031 25.0062 34.2281L3.56875 5.22031L7.26094 1.52813C6.7625 0.996875 6.06406 0.6875 5.33281 0.6875C4.81094 0.6875 4.30625 0.840625 3.87031 1.12969L1.9875 2.38594C1.32969 2.82344 0.9375 3.55781 0.9375 4.34844C0.9375 4.75312 1.04219 5.15313 1.24062 5.50469L27.3953 52C28.0953 53.2453 29.3031 54.0922 30.7094 54.325L39.7891 55.8391C44.4828 56.6203 48.7734 59.0422 51.8719 62.6562L52.1422 62.9688C54.225 65.4 54.5641 69.4891 52.9016 72.0859C51.2859 74.6109 50.6484 77.5453 51.0594 80.5703C51.7922 85.9703 56.0563 90.3219 61.4281 91.1547C62.0922 91.2594 62.7687 91.3125 63.4375 91.3125H85.0125C85.1781 91.3125 85.3125 91.1781 85.3125 91.0125C85.3125 90.8891 85.2391 90.7781 85.125 90.7328V90.7328ZM40 52.25C38.2734 52.25 36.875 50.8516 36.875 49.125C36.875 47.3984 38.2734 46 40 46C41.7266 46 43.125 47.3984 43.125 49.125C43.125 50.8516 41.7266 52.25 40 52.25ZM63.4375 86.625C59.1234 86.625 55.625 83.1266 55.625 78.8125C55.625 74.4984 59.1234 71 63.4375 71C67.7516 71 71.25 74.4984 71.25 78.8125C71.25 83.1266 67.7516 86.625 63.4375 86.625Z" fill="#6E6D6D"/>
</svg>
