<svg width="200" height="200" viewBox="0 0 200 200" fill="none" xmlns="http://www.w3.org/2000/svg">
<g filter="url(#filter0_i_72_6877)">
<circle cx="100" cy="100" r="89" stroke="#A99797" stroke-width="22"/>
</g>
<g filter="url(#filter1_i_72_6877)">
<path d="M85.7249 83.9407L89.6187 80.047L87.9999 78.272L84.2827 81.9892L85.7249 83.9407Z" fill="#6E6D6D"/>
<path d="M82.4046 79.4485L85.8937 75.961L84.2749 74.186L80.9624 77.497L82.4046 79.4485Z" fill="#6E6D6D"/>
<path d="M79.0843 74.9562L82.1671 71.8734L80.5483 70.0984L77.6421 73.0046L79.0843 74.9562Z" fill="#6E6D6D"/>
<path d="M75.764 70.4643L78.4405 67.7861L76.8218 66.0127L74.3218 68.5127L75.764 70.4643Z" fill="#6E6D6D"/>
<path d="M96.9625 88.1016L95.4516 86.4453L92.7 89.1969C94.2219 89.3 95.7094 88.9094 96.9625 88.1016Z" fill="#6E6D6D"/>
<path d="M89.3969 88.0813L93.3438 84.1329L91.725 82.3579L87.6125 86.4704C88.1125 87.1188 88.7235 87.6501 89.3969 88.0813Z" fill="#6E6D6D"/>
<path d="M70.989 59.6141L69.3702 57.8391L67.6812 59.5297L69.1233 61.4797L70.989 59.6141Z" fill="#6E6D6D"/>
<path d="M91.1423 137.93C89.8594 136.441 89.136 134.503 89.0532 132.325C88.9719 130.206 88.3485 128.131 87.2501 126.325C85.4969 123.442 85.7563 119.424 87.8548 116.978L89.2907 115.303C90.5266 113.861 92.0594 112.747 93.7563 112.002L90.1969 111.408C89.4141 111.278 88.6719 111.024 87.9813 110.678L83.4813 116.206C81.5954 118.524 78.8063 120.024 75.8313 120.322C69.8798 120.914 64.986 125.395 64.1938 130.975C63.6219 135.006 64.9438 138.933 67.8219 141.749C70.7001 144.564 74.6641 145.795 78.6923 145.139C80.7141 144.806 82.6485 143.945 84.286 142.652C86.1641 141.169 88.8438 141.319 90.5173 142.995L92.3219 144.8C92.6532 145.131 93.0923 145.313 93.561 145.313C94.5266 145.313 95.3126 144.527 95.3126 143.561C95.3126 143.05 95.1282 142.553 94.7938 142.166L91.1423 137.93ZM76.5626 140.625C72.2485 140.625 68.7501 137.127 68.7501 132.813C68.7501 128.499 72.2485 125 76.5626 125C80.8766 125 84.3751 128.499 84.3751 132.813C84.3751 137.127 80.8766 140.625 76.5626 140.625Z" fill="#6E6D6D"/>
<path d="M132.784 66.0671C133.825 64.4546 134.375 62.589 134.375 60.6687C134.375 58.8296 133.833 57.0734 132.827 55.5828L103.922 91.0953L111.369 99.2625L132.784 66.0671Z" fill="#6E6D6D"/>
<path d="M74.7155 63.7L73.0968 61.925L71.0015 64.0204L72.4437 65.9719L74.7155 63.7Z" fill="#6E6D6D"/>
<path d="M145.125 144.733L138.197 141.963C135.959 141.067 134.781 138.617 135.456 136.266C135.933 134.605 136.056 132.873 135.827 131.12C135.088 125.467 130.245 120.931 124.311 120.338C121.258 120.031 118.408 118.481 116.491 116.084L116.117 115.616C114.792 113.962 114.062 111.881 114.062 109.759V107.459C114.062 107.069 113.917 106.697 113.655 106.408L99.0812 90.425C97.3625 91.6625 95.3 92.3422 93.1672 92.3422C92.9156 92.3422 92.6625 92.3328 92.4094 92.3141C89.4609 92.0938 86.7641 90.6031 85.0062 88.2281L63.5687 59.2203L67.2609 55.5281C66.7625 54.9969 66.0641 54.6875 65.3328 54.6875C64.8109 54.6875 64.3062 54.8406 63.8703 55.1297L61.9875 56.3859C61.3297 56.8234 60.9375 57.5578 60.9375 58.3484C60.9375 58.7531 61.0422 59.1531 61.2406 59.5047L87.3953 106C88.0953 107.245 89.3031 108.092 90.7094 108.325L99.7891 109.839C104.483 110.62 108.773 113.042 111.872 116.656L112.142 116.969C114.225 119.4 114.564 123.489 112.902 126.086C111.286 128.611 110.648 131.545 111.059 134.57C111.792 139.97 116.056 144.322 121.428 145.155C122.092 145.259 122.769 145.312 123.438 145.312H145.012C145.178 145.312 145.312 145.178 145.312 145.012C145.312 144.889 145.239 144.778 145.125 144.733ZM100 106.25C98.2734 106.25 96.875 104.852 96.875 103.125C96.875 101.398 98.2734 100 100 100C101.727 100 103.125 101.398 103.125 103.125C103.125 104.852 101.727 106.25 100 106.25ZM123.438 140.625C119.123 140.625 115.625 137.127 115.625 132.812C115.625 128.498 119.123 125 123.438 125C127.752 125 131.25 128.498 131.25 132.812C131.25 137.127 127.752 140.625 123.438 140.625Z" fill="#6E6D6D"/>
</g>
<defs>
<filter id="filter0_i_72_6877" x="0" y="0" width="200" height="204" filterUnits="userSpaceOnUse" color-interpolation-filters="sRGB">
<feFlood flood-opacity="0" result="BackgroundImageFix"/>
<feBlend mode="normal" in="SourceGraphic" in2="BackgroundImageFix" result="shape"/>
<feColorMatrix in="SourceAlpha" type="matrix" values="0 0 0 0 0 0 0 0 0 0 0 0 0 0 0 0 0 0 127 0" result="hardAlpha"/>
<feOffset dy="4"/>
<feGaussianBlur stdDeviation="2"/>
<feComposite in2="hardAlpha" operator="arithmetic" k2="-1" k3="1"/>
<feColorMatrix type="matrix" values="0 0 0 0 0 0 0 0 0 0 0 0 0 0 0 0 0 0 0.25 0"/>
<feBlend mode="normal" in2="shape" result="effect1_innerShadow_72_6877"/>
</filter>
<filter id="filter1_i_72_6877" x="50" y="50" width="100" height="104" filterUnits="userSpaceOnUse" color-interpolation-filters="sRGB">
<feFlood flood-opacity="0" result="BackgroundImageFix"/>
<feBlend mode="normal" in="SourceGraphic" in2="BackgroundImageFix" result="shape"/>
<feColorMatrix in="SourceAlpha" type="matrix" values="0 0 0 0 0 0 0 0 0 0 0 0 0 0 0 0 0 0 127 0" result="hardAlpha"/>
<feOffset dy="4"/>
<feGaussianBlur stdDeviation="2"/>
<feComposite in2="hardAlpha" operator="arithmetic" k2="-1" k3="1"/>
<feColorMatrix type="matrix" values="0 0 0 0 0 0 0 0 0 0 0 0 0 0 0 0 0 0 0.25 0"/>
<feBlend mode="normal" in2="shape" result="effect1_innerShadow_72_6877"/>
</filter>
</defs>
</svg>
