<svg width="96" height="96" viewBox="0 0 96 96" fill="none" xmlns="http://www.w3.org/2000/svg">
<g clip-path="url(#clip0_533_165)" filter="url(#filter0_i_533_165)">
<path fill-rule="evenodd" clip-rule="evenodd" d="M16.9757 1.02977C8.77295 2.41031 2.1579 9.07475 0.81769 17.309C-0.217299 23.668 1.92279 29.8287 6.74941 34.3847C9.31255 36.8041 11.9232 38.2481 15.5404 39.2467C17.0939 39.6756 17.1633 39.678 30.0502 39.7457C39.3354 39.7946 43.464 39.7519 44.6422 39.5946L46.2852 39.3754L48.9893 42.059C50.4766 43.5348 51.9598 44.8756 52.2854 45.0383C53.562 45.6762 55.2028 45.134 55.8532 43.8591C56.1974 43.1842 56.2256 42.7745 56.2256 38.4392V33.7493L56.7829 33.2152C58.4241 31.6431 60.3726 28.0063 61.1717 25.0239C61.5892 23.4664 61.6539 22.8485 61.6615 20.3612C61.671 17.218 61.365 15.5601 60.286 12.9089C59.0939 9.97951 56.58 6.71084 53.981 4.71097C51.6152 2.89053 48.4151 1.51554 45.404 1.02534C43.1325 0.655551 19.1769 0.659436 16.9757 1.02977ZM21.4533 17.9588C22.2741 18.3776 22.9283 19.4433 22.9283 20.3612C22.9283 21.7751 21.5608 23.136 20.1399 23.136C19.2795 23.136 18.1367 22.4166 17.7297 21.6187C17.0466 20.2796 17.4754 18.8177 18.7834 18.0258C19.6691 17.4897 20.493 17.469 21.4533 17.9588ZM32.5524 17.9588C33.3731 18.3776 34.0274 19.4433 34.0274 20.3612C34.0274 21.7751 32.6598 23.136 31.239 23.136C30.3786 23.136 29.2358 22.4166 28.8288 21.6187C28.1456 20.2796 28.5744 18.8177 29.8825 18.0258C30.7682 17.4897 31.5921 17.469 32.5524 17.9588ZM43.6514 17.9588C44.4722 18.3776 45.1265 19.4433 45.1265 20.3612C45.1265 21.7751 43.7589 23.136 42.338 23.136C41.4777 23.136 40.3348 22.4166 39.9279 21.6187C39.2447 20.2796 39.6735 18.8177 40.9815 18.0258C41.8672 17.4897 42.6912 17.469 43.6514 17.9588ZM50.5835 51.0827C46.6874 51.6545 42.6384 53.7191 39.7507 56.6069C37.246 59.1118 35.4942 62.2116 34.5628 65.7873C34.1991 67.184 34.1338 67.8836 34.141 70.307C34.1486 72.7943 34.2133 73.4122 34.6308 74.9698C35.43 77.9521 37.3784 81.5889 39.0196 83.1611L39.577 83.6951V88.4775C39.577 92.9055 39.6045 93.3139 39.9493 93.9899C40.5997 95.2648 42.2405 95.807 43.5171 95.169C43.8427 95.0064 45.2795 93.712 46.7101 92.2928L49.3112 89.7127L64.0062 89.6733L78.7012 89.6341L80.2688 89.1962C83.8994 88.1819 86.6836 86.628 89.1845 84.2207C97.2307 76.4744 97.2773 64.247 89.2903 56.4965C86.5542 53.8416 84.2095 52.5304 80.1811 51.4025C78.716 50.9924 78.5669 50.988 65.1973 50.9541C57.7702 50.9353 51.194 50.9932 50.5835 51.0827ZM54.7505 67.9047C55.5713 68.3235 56.2256 69.3892 56.2256 70.307C56.2256 71.7209 54.858 73.0818 53.4371 73.0818C52.5767 73.0818 51.4339 72.3624 51.0269 71.5646C50.3438 70.2255 50.7726 68.7635 52.0806 67.9716C52.9663 67.4355 53.7902 67.4148 54.7505 67.9047ZM65.8496 67.9047C66.6704 68.3235 67.3246 69.3892 67.3246 70.307C67.3246 71.7209 65.957 73.0818 64.5362 73.0818C63.6758 73.0818 62.533 72.3624 62.126 71.5646C61.4429 70.2255 61.8717 68.7635 63.1797 67.9716C64.0654 67.4355 64.8893 67.4148 65.8496 67.9047ZM76.9486 67.9047C77.7694 68.3235 78.4237 69.3892 78.4237 70.307C78.4237 71.7209 77.0561 73.0818 75.6353 73.0818C74.7749 73.0818 73.6321 72.3624 73.2251 71.5646C72.5419 70.2255 72.9707 68.7635 74.2788 67.9716C75.1645 67.4355 75.9884 67.4148 76.9486 67.9047Z" fill="#6E6D6D"/>
</g>
<defs>
<filter id="filter0_i_533_165" x="0" y="0" width="96" height="100" filterUnits="userSpaceOnUse" color-interpolation-filters="sRGB">
<feFlood flood-opacity="0" result="BackgroundImageFix"/>
<feBlend mode="normal" in="SourceGraphic" in2="BackgroundImageFix" result="shape"/>
<feColorMatrix in="SourceAlpha" type="matrix" values="0 0 0 0 0 0 0 0 0 0 0 0 0 0 0 0 0 0 127 0" result="hardAlpha"/>
<feOffset dy="4"/>
<feGaussianBlur stdDeviation="2"/>
<feComposite in2="hardAlpha" operator="arithmetic" k2="-1" k3="1"/>
<feColorMatrix type="matrix" values="0 0 0 0 0 0 0 0 0 0 0 0 0 0 0 0 0 0 0.25 0"/>
<feBlend mode="normal" in2="shape" result="effect1_innerShadow_533_165"/>
</filter>
<clipPath id="clip0_533_165">
<rect width="96" height="96" fill="white"/>
</clipPath>
</defs>
</svg>
