<svg width="84" height="84" viewBox="0 0 84 84" fill="none" xmlns="http://www.w3.org/2000/svg">
<g filter="url(#filter0_i_533_159)">
<path fill-rule="evenodd" clip-rule="evenodd" d="M17.9024 0.341391C16.8423 0.901174 16.3312 2.4334 16.8639 3.45445C16.9877 3.69193 17.4843 4.35251 17.9675 4.92241C19.585 6.8306 20.0443 8.72704 19.2596 10.258C19.0591 10.6491 18.165 11.6718 17.2725 12.5305C14.5099 15.189 13.6534 16.8701 13.6399 19.6594C13.6332 21.0328 13.7033 21.4967 14.0842 22.5954C14.7862 24.6203 16.524 27.1739 17.6858 27.8878C18.9795 28.6828 20.5752 28.3124 21.2089 27.07C21.8127 25.8865 21.6098 25.0601 20.3765 23.6787C18.6473 21.742 18.1061 19.6991 18.9073 18.1328C19.1074 17.7416 20.0012 16.7189 20.8938 15.8602C23.3674 13.4796 24.3427 11.7435 24.5679 9.31879C24.7804 7.03203 23.7157 4.10606 21.8474 1.8423C20.3849 0.0701449 19.2408 -0.365187 17.9024 0.341391ZM33.597 0.307139C32.7857 0.73823 32.2948 1.52914 32.2948 2.40502C32.2948 3.27666 32.4256 3.536 33.5093 4.81345C34.6251 6.12875 35.1222 7.18617 35.201 8.41175C35.2901 9.798 34.8639 10.6236 33.2993 12.0944C30.3063 14.9083 29.1957 16.9768 29.1957 19.7377C29.1957 22.2874 30.8268 25.7582 32.8668 27.5492C34.0586 28.5957 35.5631 28.5713 36.5124 27.49C37.5113 26.3524 37.3504 25.2153 35.966 23.6278C34.6972 22.1729 34.1819 21.0509 34.1818 19.741C34.1816 19.0248 34.2785 18.4996 34.4804 18.1222C34.6446 17.815 35.6349 16.7141 36.6807 15.6755C39.0892 13.2844 39.921 11.7758 40.2006 9.29253C40.4769 6.8381 38.9699 3.26198 36.7546 1.11533C35.5641 -0.0383211 34.6753 -0.265855 33.597 0.307139ZM49.421 0.187908C48.3228 0.624545 47.6306 1.93005 47.9273 3.00476C48.0106 3.30618 48.5193 4.09399 49.0579 4.75555C50.3021 6.28386 50.7404 7.16317 50.8475 8.34635C50.9764 9.76587 50.4407 10.7328 48.5872 12.4268C45.9445 14.8421 44.854 16.9776 44.854 19.7374C44.854 22.3279 46.0334 25.0009 48.1062 27.1087C49.0387 28.0568 49.275 28.2113 49.9429 28.3085C51.6427 28.5563 53.0371 27.0431 52.6766 25.3424C52.6164 25.0589 52.1248 24.2882 51.584 23.6298C50.3448 22.121 49.8961 21.231 49.7912 20.0731C49.6585 18.609 50.1 17.809 52.1172 15.8599C54.7667 13.2997 55.6127 11.7124 55.743 9.05749C55.858 6.71185 55.0776 4.437 53.4285 2.31058C51.8019 0.213189 50.7537 -0.342026 49.421 0.187908ZM2.36464 36.1189C1.76473 36.3854 1.22061 36.9598 0.98916 37.571C0.758363 38.1802 0.757385 51.4757 0.988018 53.9934C1.86407 63.5577 6.93229 71.9629 15.2398 77.6284L16.6977 78.6225H9.72859C3.1208 78.6225 2.72674 78.6392 2.13075 78.9434C1.68954 79.1685 1.39366 79.4878 1.13889 80.014C0.569812 81.1894 0.869765 82.2393 2.01967 83.0979L2.47017 83.4342L34.5494 83.4755C64.8416 83.5143 66.6604 83.5006 67.1964 83.2308C68.8342 82.406 68.9601 80.0089 67.4187 78.9983C67.0088 78.7295 66.357 78.6971 59.891 78.6225L52.8122 78.541L54.2548 77.5623C61.4403 72.6881 66.1437 65.7307 67.9791 57.2613C68.3799 55.4118 68.3881 55.2288 68.4574 46.4905L68.528 37.6012L68.146 37.0303C67.9359 36.7163 67.5086 36.3311 67.1964 36.1743C66.6617 35.9055 64.7814 35.8894 34.7414 35.8952C8.53171 35.9003 2.76686 35.9401 2.36464 36.1189ZM73.4873 40.4203C73.438 40.4696 73.3977 41.5823 73.3977 42.893V45.2762L74.4824 45.7487C77.9755 47.2705 79.8011 51.348 78.6507 55.0582C77.9283 57.3877 75.5721 59.5072 73.1204 60.0331L72.3304 60.2026L72.0224 61.298C71.8533 61.9005 71.5062 62.9423 71.2514 63.613C70.9965 64.2838 70.788 64.9217 70.788 65.0307C70.788 65.3052 72.773 65.1498 74.4579 64.7433C79.6764 63.4843 83.4466 59.0256 83.924 53.5491C84.1246 51.2478 83.4231 48.2868 82.1929 46.2426C81.0902 44.4099 78.9465 42.415 77.0676 41.473C75.8931 40.8842 73.6755 40.2321 73.4873 40.4203Z" fill="#6E6D6D"/>
</g>
<defs>
<filter id="filter0_i_533_159" x="0" y="0" width="84" height="88" filterUnits="userSpaceOnUse" color-interpolation-filters="sRGB">
<feFlood flood-opacity="0" result="BackgroundImageFix"/>
<feBlend mode="normal" in="SourceGraphic" in2="BackgroundImageFix" result="shape"/>
<feColorMatrix in="SourceAlpha" type="matrix" values="0 0 0 0 0 0 0 0 0 0 0 0 0 0 0 0 0 0 127 0" result="hardAlpha"/>
<feOffset dy="4"/>
<feGaussianBlur stdDeviation="2"/>
<feComposite in2="hardAlpha" operator="arithmetic" k2="-1" k3="1"/>
<feColorMatrix type="matrix" values="0 0 0 0 0 0 0 0 0 0 0 0 0 0 0 0 0 0 0.25 0"/>
<feBlend mode="normal" in2="shape" result="effect1_innerShadow_533_159"/>
</filter>
</defs>
</svg>
