<svg width="40" height="40" viewBox="0 0 40 40" fill="none" xmlns="http://www.w3.org/2000/svg">
<path fill-rule="evenodd" clip-rule="evenodd" d="M19.7019 2.30288C19.6911 2.34682 19.6683 2.38278 19.6513 2.38278C19.6343 2.38278 19.6204 2.41874 19.6204 2.46268C19.6204 2.50663 19.6062 2.54258 19.5889 2.54258C19.5716 2.54258 19.5574 2.57854 19.5574 2.62248C19.5574 2.66643 19.5433 2.70238 19.526 2.70238C19.5087 2.70238 19.4945 2.73012 19.4945 2.76403C19.4945 2.79791 19.4732 2.84723 19.4473 2.87359C19.4213 2.89996 19.4 2.95132 19.4 2.98776C19.4 3.02416 19.3859 3.05395 19.3686 3.05395C19.3512 3.05395 19.3371 3.0899 19.3371 3.13385C19.3371 3.17779 19.3229 3.21375 19.3056 3.21375C19.2883 3.21375 19.2741 3.24075 19.2741 3.27377C19.2741 3.30675 19.2529 3.35166 19.2269 3.37355C19.2009 3.39544 19.1797 3.44035 19.1797 3.47333C19.1797 3.50635 19.1655 3.53335 19.1482 3.53335C19.1309 3.53335 19.1167 3.55445 19.1167 3.58021C19.1167 3.63799 19.0153 3.865 18.9829 3.87958C18.9699 3.88546 18.9593 3.92499 18.9593 3.96747C18.9593 4.00998 18.9451 4.04472 18.9278 4.04472C18.9105 4.04472 18.8963 4.06482 18.8963 4.0894C18.8963 4.11397 18.8611 4.19666 18.818 4.27317C18.7749 4.34968 18.7395 4.4446 18.7393 4.48417C18.7391 4.52374 18.7248 4.55608 18.7074 4.55608C18.6901 4.55608 18.676 4.57794 18.676 4.60466C18.676 4.63138 18.6406 4.71019 18.5973 4.7798C18.554 4.84941 18.5186 4.92823 18.5186 4.95495C18.5186 4.98167 18.5044 5.00353 18.4871 5.00353C18.4698 5.00353 18.4556 5.03948 18.4556 5.08343C18.4556 5.12737 18.4414 5.16333 18.4241 5.16333C18.4068 5.16333 18.3926 5.18934 18.3926 5.22114C18.3926 5.25294 18.3718 5.30686 18.3464 5.34099C18.321 5.3751 18.2997 5.42822 18.2992 5.45896C18.2986 5.48971 18.284 5.51489 18.2667 5.51489C18.2494 5.51489 18.2352 5.55085 18.2352 5.59479C18.2352 5.63874 18.2213 5.67469 18.2043 5.67469C18.1874 5.67469 18.1646 5.71065 18.1537 5.75459C18.1429 5.79854 18.1213 5.83449 18.1059 5.83449C18.0904 5.83449 18.0778 5.87764 18.0778 5.93038C18.0778 5.98311 18.0637 6.02626 18.0463 6.02626C18.029 6.02626 18.0144 6.05144 18.0138 6.08219C18.0132 6.11293 17.9862 6.17046 17.9537 6.21003C17.9066 6.26733 17.862 6.28194 17.7344 6.28194C17.6462 6.28194 17.5741 6.29632 17.5741 6.3139C17.5741 6.33247 17.4717 6.34586 17.3299 6.34586C17.1956 6.34586 17.0363 6.36069 16.9757 6.37881C16.9153 6.3969 16.7276 6.42065 16.5588 6.43158C16.39 6.44248 16.2519 6.4636 16.2519 6.47853C16.2519 6.49345 16.1031 6.50566 15.9213 6.50566C15.722 6.50566 15.5908 6.51835 15.5908 6.53762C15.5908 6.556 15.4937 6.56958 15.3625 6.56958C15.237 6.56958 15.0233 6.59116 14.8876 6.61752C14.7518 6.64389 14.55 6.66546 14.4389 6.66546C14.3254 6.66546 14.2371 6.67943 14.2371 6.69742C14.2371 6.7167 14.1059 6.72938 13.9065 6.72938C13.5932 6.72938 13.576 6.73284 13.576 6.79557C13.576 6.85825 13.6423 6.95311 13.6862 6.95311C13.7124 6.95311 13.7963 7.03831 13.7963 7.06497C13.7963 7.09162 13.8803 7.17683 13.9065 7.17683C13.9392 7.17683 14.0167 7.26513 14.0167 7.3024C14.0167 7.32122 14.0315 7.33663 14.0496 7.33663C14.0677 7.33663 14.1152 7.36897 14.1552 7.40854C14.2858 7.53788 14.3944 7.62427 14.4262 7.62427C14.4434 7.62427 14.4575 7.64585 14.4575 7.67221C14.4575 7.69858 14.471 7.72015 14.4875 7.72015C14.504 7.72015 14.6463 7.84959 14.8037 8.0078C14.9612 8.166 15.1019 8.29544 15.1163 8.29544C15.1307 8.29544 15.2441 8.39611 15.3682 8.51916C15.4923 8.64221 15.6074 8.74288 15.6238 8.74288C15.6403 8.74288 15.6537 8.75829 15.6537 8.77711C15.6537 8.81374 15.731 8.90269 15.7628 8.90269C15.784 8.90269 15.8604 8.97105 16.0933 9.19832C16.1789 9.28183 16.2577 9.35013 16.2684 9.35013C16.3005 9.35013 16.3778 9.43888 16.3778 9.4757C16.3778 9.49453 16.3922 9.50993 16.4097 9.50993C16.4272 9.50993 16.5122 9.58203 16.5986 9.67015C16.7487 9.82333 16.7556 9.8381 16.7556 10.0057C16.7556 10.1022 16.7444 10.1811 16.7306 10.1811C16.705 10.1811 16.6406 10.4914 16.6094 10.7644C16.5999 10.8479 16.5793 10.9162 16.5637 10.9162C16.548 10.9162 16.5352 11.0025 16.5352 11.1079C16.5352 11.2134 16.5221 11.2997 16.506 11.2997C16.49 11.2997 16.467 11.379 16.4551 11.4759C16.4432 11.5728 16.4209 11.66 16.4056 11.6696C16.3903 11.6791 16.3778 11.7652 16.3778 11.8609C16.3778 11.9566 16.365 12.0348 16.3493 12.0348C16.3335 12.0348 16.3139 12.1103 16.3055 12.2026C16.2972 12.2949 16.2661 12.4639 16.2363 12.5781C16.2066 12.6924 16.1753 12.8542 16.1668 12.9377C16.1583 13.0212 16.1399 13.0895 16.1258 13.0895C16.1118 13.0895 16.093 13.165 16.0841 13.2573C16.0561 13.5452 15.9943 13.8565 15.9651 13.8565C15.9497 13.8565 15.9371 13.9438 15.9371 14.0504C15.9371 14.2369 15.9398 14.2435 16.0079 14.222C16.0469 14.2097 16.0835 14.1872 16.0892 14.1719C16.095 14.1567 16.1269 14.1442 16.1601 14.1442C16.1933 14.1442 16.2204 14.1298 16.2204 14.1122C16.2204 14.0946 16.2417 14.0803 16.2676 14.0803C16.2936 14.0803 16.3149 14.0662 16.3149 14.0489C16.3149 14.0317 16.3503 14.0085 16.3936 13.9975C16.4368 13.9865 16.4723 13.9646 16.4723 13.949C16.4723 13.9333 16.5006 13.9205 16.5352 13.9205C16.5699 13.9205 16.5982 13.9076 16.5982 13.8919C16.5982 13.8763 16.6336 13.8544 16.6769 13.8434C16.7202 13.8324 16.7556 13.8092 16.7556 13.792C16.7556 13.7748 16.7839 13.7607 16.8186 13.7607C16.8532 13.7607 16.8815 13.7463 16.8815 13.7287C16.8815 13.7111 16.9028 13.6967 16.9287 13.6967C16.9547 13.6967 16.976 13.6839 16.976 13.6682C16.976 13.6526 17.0114 13.6307 17.0547 13.6197C17.098 13.6087 17.1334 13.5855 17.1334 13.5683C17.1334 13.551 17.1605 13.5369 17.1937 13.5369C17.2269 13.5369 17.2588 13.5262 17.2646 13.513C17.2703 13.4998 17.3305 13.4602 17.3984 13.4251C17.6131 13.3138 17.6371 13.2986 17.6371 13.2737C17.6371 13.2603 17.6572 13.2493 17.6818 13.2493C17.7379 13.2493 17.9199 13.1456 17.9202 13.1135C17.9203 13.1003 17.9417 13.0895 17.9676 13.0895C17.9936 13.0895 18.0149 13.0751 18.0149 13.0575C18.0149 13.04 18.0432 13.0256 18.0778 13.0256C18.1124 13.0256 18.1408 13.0128 18.1408 12.9971C18.1408 12.9814 18.1762 12.9595 18.2195 12.9485C18.2628 12.9375 18.2982 12.9143 18.2982 12.8971C18.2982 12.8799 18.3265 12.8658 18.3612 12.8658C18.3958 12.8658 18.4241 12.8514 18.4241 12.8338C18.4241 12.8162 18.4454 12.8018 18.4713 12.8018C18.4973 12.8018 18.5186 12.789 18.5186 12.7733C18.5186 12.7577 18.554 12.7358 18.5973 12.7248C18.6406 12.7138 18.676 12.6906 18.676 12.6734C18.676 12.6561 18.7043 12.642 18.7389 12.642C18.7736 12.642 18.8019 12.6292 18.8019 12.6135C18.8019 12.5979 18.834 12.5768 18.8734 12.5668C18.9126 12.5568 18.9758 12.5193 19.0137 12.4835C19.0516 12.4476 19.1044 12.4183 19.1311 12.4183C19.1578 12.4183 19.1797 12.4039 19.1797 12.3864C19.1797 12.3688 19.2084 12.3544 19.2436 12.3544C19.2788 12.3544 19.3157 12.3328 19.3257 12.3065C19.3357 12.2801 19.3706 12.2585 19.4034 12.2585C19.4362 12.2585 19.463 12.2441 19.463 12.2266C19.463 12.209 19.4843 12.1946 19.5102 12.1946C19.5362 12.1946 19.5574 12.1802 19.5574 12.1626C19.5574 12.1451 19.5789 12.1307 19.6051 12.1307C19.6313 12.1307 19.6809 12.1128 19.7153 12.091C19.7651 12.0595 19.7906 12.0595 19.8403 12.091C19.8747 12.1128 19.9243 12.1307 19.9505 12.1307C19.9768 12.1307 19.9982 12.1451 19.9982 12.1626C19.9982 12.1802 20.0194 12.1946 20.0454 12.1946C20.0714 12.1946 20.0926 12.209 20.0926 12.2266C20.0926 12.2441 20.121 12.2585 20.1556 12.2585C20.1902 12.2585 20.2186 12.2726 20.2186 12.2899C20.2186 12.3071 20.254 12.3302 20.2973 12.3413C20.3405 12.3523 20.376 12.3742 20.376 12.3898C20.376 12.4055 20.4043 12.4183 20.4389 12.4183C20.4736 12.4183 20.5019 12.4324 20.5019 12.4497C20.5019 12.4669 20.5373 12.49 20.5806 12.5011C20.6239 12.5121 20.6593 12.534 20.6593 12.5496C20.6593 12.5653 20.6805 12.5781 20.7065 12.5781C20.7325 12.5781 20.7537 12.5925 20.7537 12.6101C20.7537 12.6277 20.7821 12.642 20.8167 12.642C20.8513 12.642 20.8797 12.6561 20.8797 12.6734C20.8797 12.6906 20.9151 12.7138 20.9584 12.7248C21.0017 12.7358 21.0371 12.7577 21.0371 12.7733C21.0371 12.789 21.0654 12.8018 21.1 12.8018C21.1347 12.8018 21.163 12.8162 21.163 12.8338C21.163 12.8514 21.1843 12.8658 21.2102 12.8658C21.2362 12.8658 21.2574 12.8799 21.2574 12.8971C21.2574 12.9143 21.2929 12.9375 21.3361 12.9485C21.3794 12.9595 21.4149 12.9814 21.4149 12.9971C21.4149 13.0128 21.4432 13.0256 21.4778 13.0256C21.5124 13.0256 21.5408 13.0365 21.5408 13.05C21.5408 13.0744 21.6341 13.1321 21.7375 13.1717C21.7678 13.1833 21.7926 13.2055 21.7926 13.2211C21.7926 13.2366 21.821 13.2493 21.8556 13.2493C21.8902 13.2493 21.9186 13.2637 21.9186 13.2813C21.9186 13.2988 21.9454 13.3132 21.9782 13.3132C22.0109 13.3132 22.0459 13.3348 22.0559 13.3612C22.0658 13.3875 22.1028 13.4091 22.138 13.4091C22.1731 13.4091 22.2019 13.4235 22.2019 13.4411C22.2019 13.4586 22.2231 13.473 22.2491 13.473C22.2751 13.473 22.2963 13.4874 22.2963 13.505C22.2963 13.5226 22.3247 13.5369 22.3593 13.5369C22.3939 13.5369 22.4223 13.551 22.4223 13.5683C22.4223 13.5855 22.4577 13.6087 22.501 13.6197C22.5443 13.6307 22.5797 13.6526 22.5797 13.6682C22.5797 13.6839 22.608 13.6967 22.6426 13.6967C22.6773 13.6967 22.7056 13.7111 22.7056 13.7287C22.7056 13.7463 22.7268 13.7607 22.7528 13.7607C22.7788 13.7607 22.8 13.7748 22.8 13.792C22.8 13.8092 22.8355 13.8324 22.8787 13.8434C22.922 13.8544 22.9574 13.8763 22.9574 13.8919C22.9574 13.9076 22.9858 13.9205 23.0204 13.9205C23.055 13.9205 23.0834 13.9333 23.0834 13.949C23.0834 13.9646 23.1188 13.9865 23.1621 13.9975C23.2054 14.0085 23.2408 14.0317 23.2408 14.0489C23.2408 14.0662 23.262 14.0803 23.288 14.0803C23.314 14.0803 23.3352 14.0946 23.3352 14.1122C23.3352 14.1298 23.3624 14.1442 23.3956 14.1442C23.4288 14.1442 23.4606 14.1567 23.4664 14.1719C23.4722 14.1872 23.5088 14.2097 23.5477 14.222C23.6158 14.2435 23.6186 14.2369 23.6186 14.0504C23.6186 13.9438 23.6062 13.8565 23.5911 13.8565C23.5761 13.8565 23.5541 13.7702 23.5424 13.6648C23.5306 13.5593 23.5075 13.473 23.4911 13.473C23.4746 13.473 23.4611 13.3867 23.4611 13.2813C23.4611 13.1758 23.4483 13.0895 23.4327 13.0895C23.4171 13.0895 23.3965 13.0212 23.3869 12.9377C23.3558 12.6647 23.2913 12.3544 23.2658 12.3544C23.252 12.3544 23.2408 12.2825 23.2408 12.1946C23.2408 12.1067 23.228 12.0348 23.2123 12.0348C23.1967 12.0348 23.1772 11.9665 23.1691 11.883C23.1441 11.6277 23.0756 11.2997 23.0472 11.2997C23.0325 11.2997 23.0204 11.2134 23.0204 11.1079C23.0204 11.0014 23.0064 10.9162 22.9889 10.9162C22.9716 10.9162 22.9574 10.8604 22.9574 10.7922C22.9574 10.7241 22.9362 10.6167 22.9102 10.5536C22.8843 10.4905 22.863 10.3809 22.863 10.31C22.863 10.2391 22.8488 10.1811 22.8315 10.1811C22.8142 10.1811 22.8 10.1022 22.8 10.0057C22.8 9.8381 22.8069 9.82333 22.957 9.67015C23.0434 9.58203 23.1284 9.50993 23.1459 9.50993C23.1635 9.50993 23.1778 9.49453 23.1778 9.4757C23.1778 9.43821 23.2554 9.35013 23.2884 9.35013C23.2997 9.35013 23.3571 9.29979 23.416 9.23827C23.4748 9.17675 23.5445 9.12641 23.5708 9.12641C23.5971 9.12641 23.6186 9.11139 23.6186 9.09301C23.6186 9.05734 23.7599 8.90269 23.7925 8.90269C23.8246 8.90269 23.9019 8.8139 23.9019 8.77711C23.9019 8.75829 23.9161 8.74288 23.9334 8.74288C23.9507 8.74288 24.0488 8.6602 24.1515 8.55911C24.3528 8.36086 24.4265 8.29544 24.4483 8.29544C24.456 8.29544 24.5926 8.166 24.7519 8.0078C24.9112 7.84959 25.0542 7.72015 25.0698 7.72015C25.0854 7.72015 25.0982 7.69858 25.0982 7.67221C25.0982 7.64585 25.1181 7.62427 25.1425 7.62427C25.1669 7.62427 25.2877 7.5236 25.4108 7.40055C25.5339 7.2775 25.6421 7.17683 25.6512 7.17683C25.6816 7.17683 25.8223 7.02035 25.8223 6.9865C25.8223 6.96813 25.8374 6.95311 25.856 6.95311C25.9115 6.95311 25.9797 6.86633 25.9797 6.79557C25.9797 6.73284 25.9625 6.72938 25.6491 6.72938C25.4673 6.72938 25.3186 6.71717 25.3186 6.70225C25.3186 6.68732 25.1798 6.66655 25.0103 6.65607C24.8408 6.64558 24.6628 6.62184 24.6147 6.6033C24.5667 6.58476 24.4079 6.56958 24.2619 6.56958C24.1058 6.56958 23.9963 6.55641 23.9963 6.53762C23.9963 6.51835 23.8652 6.50566 23.6658 6.50566C23.484 6.50566 23.3352 6.49336 23.3352 6.47834C23.3352 6.46331 23.1971 6.44305 23.0283 6.4333C22.8595 6.42356 22.6814 6.39987 22.6327 6.3807C22.584 6.36155 22.4317 6.34586 22.2943 6.34586C22.1487 6.34586 22.0445 6.33253 22.0445 6.3139C22.0445 6.2961 21.9596 6.28194 21.8528 6.28194C21.6925 6.28194 21.6514 6.27018 21.602 6.21003C21.5695 6.17046 21.5424 6.11293 21.5418 6.08219C21.5413 6.05144 21.5266 6.02626 21.5093 6.02626C21.492 6.02626 21.4778 5.98311 21.4778 5.93038C21.4778 5.87764 21.4639 5.83449 21.4469 5.83449C21.43 5.83449 21.4072 5.79854 21.3963 5.75459C21.3855 5.71065 21.3639 5.67469 21.3485 5.67469C21.333 5.67469 21.3204 5.63874 21.3204 5.59479C21.3204 5.55085 21.3062 5.51489 21.2889 5.51489C21.2716 5.51489 21.257 5.48971 21.2564 5.45896C21.2559 5.42822 21.2347 5.3751 21.2092 5.34099C21.1838 5.30686 21.163 5.25294 21.163 5.22114C21.163 5.18934 21.1488 5.16333 21.1315 5.16333C21.1142 5.16333 21.1 5.12737 21.1 5.08343C21.1 5.03948 21.0859 5.00353 21.0686 5.00353C21.0512 5.00353 21.0371 4.98167 21.0371 4.95495C21.0371 4.92823 21.0017 4.84941 20.9584 4.7798C20.9151 4.71019 20.8797 4.63138 20.8797 4.60466C20.8797 4.57794 20.8655 4.55608 20.8482 4.55608C20.8309 4.55608 20.8167 4.5278 20.8167 4.49325C20.8167 4.42319 20.7197 4.19448 20.6829 4.1779C20.6699 4.17201 20.6593 4.13967 20.6593 4.10598C20.6593 4.0723 20.6451 4.04472 20.6278 4.04472C20.6105 4.04472 20.5963 4.01493 20.5963 3.97853C20.5963 3.94209 20.5769 3.89255 20.5531 3.86842C20.5293 3.84429 20.4908 3.75902 20.4675 3.67893C20.4442 3.59887 20.4141 3.53335 20.4006 3.53335C20.387 3.53335 20.376 3.51293 20.376 3.488C20.376 3.43466 20.2764 3.23452 20.2422 3.21909C20.2292 3.2132 20.2186 3.17367 20.2186 3.13119C20.2186 3.08869 20.2044 3.05395 20.1871 3.05395C20.1698 3.05395 20.1556 3.02416 20.1556 2.98776C20.1556 2.95132 20.1343 2.89996 20.1084 2.87359C20.0824 2.84723 20.0612 2.79791 20.0612 2.76403C20.0612 2.73012 20.047 2.70238 20.0297 2.70238C20.0124 2.70238 19.9982 2.66643 19.9982 2.62248C19.9982 2.57854 19.9871 2.54258 19.9736 2.54258C19.9601 2.54258 19.9216 2.47067 19.888 2.38278C19.8203 2.20569 19.735 2.16906 19.7019 2.30288ZM7.53153 7.9279C7.53153 7.97184 7.51765 8.0078 7.50065 8.0078C7.48368 8.0078 7.46089 8.04375 7.45003 8.0877C7.43917 8.13164 7.41763 8.1676 7.40221 8.1676C7.38675 8.1676 7.37412 8.20355 7.37412 8.2475C7.37412 8.29144 7.35996 8.3274 7.34264 8.3274C7.32533 8.3274 7.31116 8.35616 7.31116 8.39132C7.31116 8.42648 7.29857 8.45524 7.28317 8.45524C7.26781 8.45524 7.2459 8.50558 7.23454 8.5671C7.22317 8.62863 7.20035 8.67896 7.18382 8.67896C7.16729 8.67896 7.15375 8.71492 7.15375 8.75886C7.15375 8.80281 7.13959 8.83877 7.12227 8.83877C7.10496 8.83877 7.09079 8.86753 7.09079 8.90269C7.09079 8.93784 7.07817 8.96661 7.06271 8.96661C7.04728 8.96661 7.02575 9.00256 7.01489 9.04651C7.00403 9.09045 6.98124 9.12641 6.96427 9.12641C6.94727 9.12641 6.93338 9.17675 6.93338 9.23827C6.93338 9.29979 6.91922 9.35013 6.9019 9.35013C6.88459 9.35013 6.87042 9.37889 6.87042 9.41405C6.87042 9.44921 6.8578 9.47797 6.84234 9.47797C6.82691 9.47797 6.80538 9.51393 6.79452 9.55787C6.78366 9.60182 6.76087 9.63777 6.7439 9.63777C6.7269 9.63777 6.71301 9.67373 6.71301 9.71767C6.71301 9.76162 6.69885 9.79758 6.68153 9.79758C6.66422 9.79758 6.65005 9.83353 6.65005 9.87748C6.65005 9.92142 6.63702 9.95738 6.62106 9.95738C6.60513 9.95738 6.58281 10.0004 6.57144 10.0529C6.56008 10.1054 6.53769 10.1566 6.5217 10.1667C6.50571 10.1767 6.49264 10.2128 6.49264 10.2469C6.49264 10.281 6.47848 10.3089 6.46116 10.3089C6.44385 10.3089 6.42968 10.3449 6.42968 10.3888C6.42968 10.4328 6.4158 10.4687 6.3988 10.4687C6.38183 10.4687 6.35904 10.5047 6.34818 10.5486C6.33731 10.5926 6.31578 10.6285 6.30035 10.6285C6.2849 10.6285 6.27227 10.6645 6.27227 10.7084C6.27227 10.7524 6.25811 10.7883 6.24079 10.7883C6.22348 10.7883 6.20931 10.8144 6.20931 10.8462C6.20931 10.878 6.1885 10.9319 6.1631 10.966C6.13766 11.0001 6.11641 11.0532 6.11587 11.084C6.11531 11.1147 6.1007 11.1399 6.08339 11.1399C6.06607 11.1399 6.0519 11.1759 6.0519 11.2198C6.0519 11.2932 6.04035 11.2997 5.91024 11.2997C5.83232 11.2997 5.76857 11.3141 5.76857 11.3317C5.76857 11.3503 5.66295 11.3636 5.51464 11.3636C5.37499 11.3636 5.23313 11.3786 5.19939 11.397C5.16567 11.4153 4.99658 11.439 4.82369 11.4497C4.65079 11.4604 4.50931 11.4814 4.50931 11.4963C4.50931 11.5112 4.36056 11.5234 4.17876 11.5234C3.97938 11.5234 3.8482 11.5361 3.8482 11.5554C3.8482 11.5735 3.75634 11.5874 3.6357 11.5874C3.51884 11.5874 3.30279 11.609 3.15561 11.6353C3.00843 11.6616 2.79949 11.6832 2.69126 11.6832C2.5811 11.6832 2.4945 11.6973 2.4945 11.7152C2.4945 11.7328 2.452 11.7472 2.40005 11.7472C2.28889 11.7472 2.27986 11.7789 2.37245 11.844C2.40918 11.8698 2.45776 11.909 2.48036 11.9309C2.50297 11.9529 2.53665 11.9709 2.55523 11.9709C2.57377 11.9709 2.58894 11.9859 2.58894 12.0043C2.58894 12.0399 2.73033 12.1946 2.76291 12.1946C2.79496 12.1946 2.87228 12.2834 2.87228 12.3202C2.87228 12.339 2.88644 12.3544 2.90376 12.3544C2.92107 12.3544 3.01923 12.4371 3.12186 12.5382C3.32592 12.7391 3.39685 12.8018 3.41986 12.8018C3.42814 12.8018 3.57979 12.9457 3.75687 13.1214C3.93393 13.2972 4.08875 13.4411 4.1009 13.4411C4.11306 13.4411 4.19494 13.513 4.2829 13.6009C4.37086 13.6887 4.45778 13.7607 4.47607 13.7607C4.49436 13.7607 4.50931 13.7761 4.50931 13.7949C4.50931 13.8317 4.58663 13.9205 4.61868 13.9205C4.65126 13.9205 4.79265 14.0751 4.79265 14.1108C4.79265 14.1292 4.80744 14.1442 4.82554 14.1442C4.84365 14.1442 4.89323 14.1795 4.93573 14.2226C4.9992 14.287 5.01302 14.3327 5.01302 14.4783C5.01302 14.5758 4.99885 14.6555 4.98153 14.6555C4.96422 14.6555 4.95005 14.7275 4.95005 14.8153C4.95005 14.9032 4.93881 14.9751 4.92506 14.9751C4.89949 14.9751 4.83505 15.2855 4.80388 15.5584C4.79438 15.6419 4.77376 15.7102 4.75811 15.7102C4.7425 15.7102 4.72968 15.7965 4.72968 15.902C4.72968 16.0075 4.71621 16.0938 4.69977 16.0938C4.68331 16.0938 4.66023 16.1801 4.64846 16.2855C4.63672 16.391 4.61477 16.4773 4.5997 16.4773C4.58462 16.4773 4.57227 16.5564 4.57227 16.6531C4.57227 16.7497 4.55943 16.8288 4.54372 16.8288C4.52798 16.8288 4.50834 16.9043 4.49999 16.9966C4.49168 17.0889 4.46045 17.2579 4.43061 17.3722C4.40076 17.4864 4.36953 17.6554 4.36122 17.7477C4.35288 17.84 4.33324 17.9155 4.3175 17.9155C4.30179 17.9155 4.28894 17.9443 4.28894 17.9794C4.28894 18.022 4.30994 18.0433 4.35191 18.0433C4.38653 18.0433 4.41487 18.0305 4.41487 18.0148C4.41487 17.9992 4.45028 17.9773 4.49357 17.9663C4.53686 17.9553 4.57227 17.9321 4.57227 17.9149C4.57227 17.8976 4.59353 17.8835 4.6195 17.8835C4.64547 17.8835 4.66672 17.8692 4.66672 17.8516C4.66672 17.834 4.69505 17.8196 4.72968 17.8196C4.76431 17.8196 4.79265 17.8068 4.79265 17.7911C4.79265 17.7754 4.82806 17.7536 4.87135 17.7426C4.91464 17.7315 4.95005 17.7084 4.95005 17.6912C4.95005 17.6739 4.97839 17.6598 5.01302 17.6598C5.04764 17.6598 5.07598 17.6454 5.07598 17.6279C5.07598 17.6103 5.09723 17.5959 5.1232 17.5959C5.14917 17.5959 5.17042 17.5831 5.17042 17.5674C5.17042 17.5517 5.20584 17.5299 5.24913 17.5188C5.29241 17.5078 5.32783 17.4847 5.32783 17.4674C5.32783 17.4502 5.355 17.4361 5.38818 17.4361C5.42136 17.4361 5.45322 17.4253 5.45901 17.4121C5.46477 17.3989 5.525 17.3594 5.59287 17.3242C5.80751 17.213 5.83153 17.1978 5.83153 17.1728C5.83153 17.1594 5.86031 17.1485 5.89547 17.1485C5.93067 17.1485 5.9676 17.1269 5.97754 17.1005C5.98752 17.0741 6.0225 17.0526 6.05527 17.0526C6.08804 17.0526 6.11487 17.0382 6.11487 17.0206C6.11487 17.003 6.13612 16.9886 6.16209 16.9886C6.18806 16.9886 6.20931 16.9743 6.20931 16.9567C6.20931 16.9391 6.22943 16.9247 6.25398 16.9247C6.31015 16.9247 6.49217 16.821 6.49245 16.7889C6.49255 16.7757 6.52806 16.7649 6.57135 16.7649C6.61463 16.7649 6.65005 16.7538 6.65005 16.7402C6.65005 16.7266 6.69963 16.6884 6.76024 16.6553C6.82084 16.6222 6.87042 16.5829 6.87042 16.5681C6.87042 16.5533 6.90584 16.5412 6.94913 16.5412C6.99241 16.5412 7.02783 16.5291 7.02783 16.5144C7.02783 16.4996 7.08434 16.4601 7.15341 16.4265C7.22245 16.3929 7.27911 16.3547 7.27933 16.3415C7.27952 16.3283 7.30153 16.3175 7.32822 16.3175C7.37397 16.3175 7.40646 16.2965 7.51689 16.1954C7.5553 16.1602 7.57126 16.1615 7.61247 16.2034C7.6397 16.231 7.6822 16.2536 7.70692 16.2536C7.73166 16.2536 7.7519 16.2679 7.7519 16.2855C7.7519 16.3031 7.78024 16.3175 7.81486 16.3175C7.84949 16.3175 7.87783 16.3319 7.87783 16.3494C7.87783 16.367 7.89908 16.3814 7.92505 16.3814C7.95102 16.3814 7.97227 16.3955 7.97227 16.4128C7.97227 16.43 8.00769 16.4531 8.05098 16.4641C8.09426 16.4752 8.12968 16.497 8.12968 16.5127C8.12968 16.5284 8.15801 16.5412 8.19264 16.5412C8.22727 16.5412 8.25561 16.554 8.25561 16.5697C8.25561 16.5854 8.29102 16.6072 8.33431 16.6183C8.3776 16.6293 8.41301 16.6524 8.41301 16.6697C8.41301 16.6869 8.43426 16.701 8.46023 16.701C8.48621 16.701 8.50746 16.7154 8.50746 16.733C8.50746 16.7505 8.53579 16.7649 8.57042 16.7649C8.60505 16.7649 8.63338 16.7777 8.63338 16.7934C8.63338 16.8091 8.6688 16.831 8.71209 16.842C8.75537 16.853 8.79079 16.8761 8.79079 16.8934C8.79079 16.9106 8.81796 16.9247 8.85114 16.9247C8.88432 16.9247 8.91618 16.9355 8.92197 16.9487C8.92773 16.9619 8.98796 17.0014 9.05583 17.0366C9.27047 17.1478 9.29449 17.1631 9.29449 17.188C9.29449 17.2014 9.32383 17.2124 9.35969 17.2124C9.39558 17.2124 9.44466 17.2304 9.46881 17.2523C9.57298 17.3472 9.60858 17.3722 9.63947 17.3722C9.65751 17.3722 9.67227 17.3866 9.67227 17.4041C9.67227 17.4217 9.70161 17.4361 9.73747 17.4361C9.77336 17.4361 9.82244 17.4541 9.84658 17.476C9.95863 17.5781 9.98872 17.5959 10.0487 17.5959C10.0841 17.5959 10.113 17.608 10.113 17.6228C10.113 17.6376 10.1626 17.6769 10.2232 17.71C10.2838 17.7431 10.3334 17.7813 10.3334 17.7949C10.3334 17.8085 10.3617 17.8196 10.3963 17.8196C10.431 17.8196 10.4593 17.8324 10.4593 17.8481C10.4593 17.8638 10.4914 17.8848 10.5308 17.8948C10.5701 17.9048 10.6332 17.9423 10.6711 17.9782C10.7665 18.0684 10.8371 18.0621 10.8371 17.9634C10.8371 17.9195 10.8229 17.8835 10.8056 17.8835C10.7881 17.8835 10.7741 17.7983 10.7741 17.6918C10.7741 17.5853 10.7601 17.5 10.7426 17.5C10.7253 17.5 10.7112 17.4442 10.7112 17.3761C10.7112 17.3079 10.6899 17.2005 10.6639 17.1374C10.638 17.0743 10.6167 16.9647 10.6167 16.8938C10.6167 16.8229 10.6025 16.7649 10.5852 16.7649C10.5679 16.7649 10.5538 16.6858 10.5538 16.5891C10.5538 16.4925 10.5396 16.4134 10.5223 16.4134C10.505 16.4134 10.4908 16.3653 10.4908 16.3066C10.4908 16.2478 10.4697 16.1292 10.4439 16.0429C10.4181 15.9566 10.3969 15.8465 10.3967 15.7981C10.3965 15.7498 10.3822 15.7102 10.3649 15.7102C10.3474 15.7102 10.3334 15.625 10.3334 15.5185C10.3334 15.4119 10.3194 15.3267 10.3019 15.3267C10.2846 15.3267 10.2699 15.2656 10.2693 15.1909C10.2687 15.1162 10.2479 15.0191 10.2232 14.9751C10.1985 14.9312 10.1777 14.8269 10.1771 14.7434C10.1765 14.66 10.1618 14.5916 10.1445 14.5916C10.1272 14.5916 10.113 14.5263 10.113 14.4464C10.113 14.3347 10.1309 14.2829 10.1903 14.2226C10.2328 14.1795 10.2754 14.1442 10.2851 14.1442C10.2947 14.1442 10.4156 14.0291 10.5538 13.8885C10.6919 13.7479 10.8179 13.6328 10.8337 13.6328C10.8496 13.6328 11.0002 13.4962 11.1685 13.3292C11.3367 13.1622 11.4808 13.0256 11.4886 13.0256C11.5164 13.0256 11.5926 12.9336 11.5926 12.9C11.5926 12.8812 11.6156 12.8658 11.6436 12.8658C11.6717 12.8658 11.7557 12.801 11.8304 12.7219C11.905 12.6428 11.9812 12.5781 11.9998 12.5781C12.0182 12.5781 12.0334 12.5627 12.0334 12.5439C12.0334 12.5077 12.1105 12.4183 12.1417 12.4183C12.1518 12.4183 12.2302 12.35 12.3159 12.2665C12.5376 12.0504 12.6266 11.9709 12.6472 11.9709C12.6684 11.9709 12.8519 11.7837 12.8519 11.762C12.8519 11.7538 12.8085 11.7472 12.7556 11.7472C12.6994 11.7472 12.6674 11.7338 12.6787 11.7152C12.6909 11.6952 12.6238 11.683 12.4996 11.6827C12.3903 11.6824 12.1735 11.6609 12.0176 11.6348C11.8618 11.6089 11.6529 11.5875 11.5533 11.5875C11.4537 11.5874 11.3723 11.573 11.3723 11.5554C11.3723 11.5361 11.2411 11.5234 11.0417 11.5234C10.8599 11.5234 10.7112 11.5111 10.7112 11.4961C10.7112 11.4811 10.573 11.4608 10.4042 11.4511C10.2354 11.4413 10.0574 11.4176 10.0087 11.3985C9.95992 11.3793 9.79344 11.3636 9.63874 11.3636C9.47221 11.3636 9.35746 11.3506 9.35746 11.3317C9.35746 11.3141 9.29371 11.2997 9.21579 11.2997C9.08568 11.2997 9.07412 11.2932 9.07412 11.2198C9.07412 11.1759 9.05996 11.1399 9.04264 11.1399C9.02533 11.1399 9.01116 11.1119 9.01116 11.0777C9.01116 11.0435 8.97574 10.9478 8.93246 10.8652C8.88917 10.7825 8.85375 10.6955 8.85375 10.6717C8.85375 10.648 8.83959 10.6285 8.82227 10.6285C8.80496 10.6285 8.79079 10.5988 8.79079 10.5624C8.79079 10.5259 8.76954 10.4746 8.74357 10.4482C8.7176 10.4218 8.69635 10.3734 8.69635 10.3405C8.69635 10.3076 8.68218 10.2719 8.66486 10.261C8.64755 10.2501 8.63338 10.2133 8.63338 10.1792C8.63338 10.1451 8.61922 10.1172 8.6019 10.1172C8.58459 10.1172 8.57042 10.0812 8.57042 10.0373C8.57042 9.99333 8.55654 9.95738 8.53954 9.95738C8.52257 9.95738 8.49978 9.92142 8.48891 9.87748C8.47805 9.83353 8.45652 9.79758 8.44109 9.79758C8.42564 9.79758 8.41301 9.76162 8.41301 9.71767C8.41301 9.67373 8.39885 9.63777 8.38153 9.63777C8.36422 9.63777 8.35005 9.61176 8.35005 9.57996C8.35005 9.54816 8.32924 9.49424 8.30384 9.46011C8.2784 9.426 8.25715 9.37289 8.25661 9.34214C8.25605 9.31139 8.24144 9.28621 8.22412 9.28621C8.20681 9.28621 8.19264 9.25025 8.19264 9.20631C8.19264 9.16236 8.17848 9.12641 8.16116 9.12641C8.14385 9.12641 8.12968 9.10599 8.12968 9.08106C8.12968 9.02771 8.0301 8.82758 7.99588 8.81214C7.98288 8.80626 7.97227 8.75954 7.97227 8.70827C7.97227 8.65701 7.95965 8.61504 7.94419 8.61504C7.92877 8.61504 7.90723 8.57909 7.89637 8.53514C7.88551 8.4912 7.86272 8.45524 7.84575 8.45524C7.82875 8.45524 7.81486 8.41929 7.81486 8.37534C7.81486 8.33139 7.8007 8.29544 7.78338 8.29544C7.76607 8.29544 7.7519 8.25948 7.7519 8.21554C7.7519 8.17159 7.73774 8.13564 7.72042 8.13564C7.70311 8.13564 7.68894 8.10863 7.68894 8.07562C7.68894 8.04263 7.66769 7.99773 7.64172 7.97584C7.61575 7.95394 7.59449 7.91623 7.59449 7.89204C7.59449 7.86781 7.58033 7.848 7.56301 7.848C7.5457 7.848 7.53153 7.88395 7.53153 7.9279ZM31.9611 7.89204C31.9611 7.91623 31.9399 7.95394 31.9139 7.97584C31.8879 7.99773 31.8667 8.04263 31.8667 8.07562C31.8667 8.10863 31.8525 8.13564 31.8352 8.13564C31.8179 8.13564 31.8037 8.17159 31.8037 8.21554C31.8037 8.25948 31.7896 8.29544 31.7723 8.29544C31.7549 8.29544 31.7408 8.31586 31.7408 8.34079C31.7408 8.39413 31.6412 8.59427 31.607 8.60971C31.594 8.61559 31.5834 8.66231 31.5834 8.71358C31.5834 8.76487 31.5707 8.8068 31.5553 8.8068C31.5399 8.8068 31.5183 8.84276 31.5075 8.88671C31.4966 8.93065 31.4738 8.96661 31.4568 8.96661C31.4398 8.96661 31.426 9.00256 31.426 9.04651C31.426 9.09045 31.4118 9.12641 31.3945 9.12641C31.3772 9.12641 31.363 9.16236 31.363 9.20631C31.363 9.25025 31.3488 9.28621 31.3315 9.28621C31.3142 9.28621 31.2996 9.31139 31.299 9.34214C31.2985 9.37289 31.2772 9.426 31.2518 9.46011C31.2264 9.49424 31.2056 9.54816 31.2056 9.57996C31.2056 9.61176 31.1914 9.63777 31.1741 9.63777C31.1568 9.63777 31.1426 9.67373 31.1426 9.71767C31.1426 9.76162 31.13 9.79758 31.1145 9.79758C31.0991 9.79758 31.0776 9.83353 31.0667 9.87748C31.0559 9.92142 31.0331 9.95738 31.0161 9.95738C30.9991 9.95738 30.9852 9.99333 30.9852 10.0373C30.9852 10.0812 30.9711 10.1172 30.9537 10.1172C30.9364 10.1172 30.9223 10.1451 30.9223 10.1792C30.9223 10.2133 30.9092 10.2495 30.8932 10.2595C30.8772 10.2695 30.8548 10.3207 30.8435 10.3732C30.8321 10.4258 30.8098 10.4687 30.7938 10.4687C30.7779 10.4687 30.7648 10.5047 30.7648 10.5486C30.7648 10.5926 30.7507 10.6285 30.7334 10.6285C30.716 10.6285 30.7019 10.649 30.7019 10.6739C30.7019 10.7272 30.6023 10.9274 30.5681 10.9428C30.5551 10.9487 30.5445 10.9954 30.5445 11.0467C30.5445 11.098 30.5303 11.1399 30.513 11.1399C30.4957 11.1399 30.4815 11.1759 30.4815 11.2198C30.4815 11.2932 30.47 11.2997 30.3398 11.2997C30.2619 11.2997 30.1982 11.3141 30.1982 11.3317C30.1982 11.3503 30.0939 11.3636 29.9484 11.3636C29.811 11.3636 29.6587 11.3793 29.6099 11.3985C29.5612 11.4176 29.3832 11.4413 29.2144 11.4511C29.0456 11.4608 28.9074 11.4811 28.9074 11.4961C28.9074 11.5111 28.7587 11.5234 28.5769 11.5234C28.3775 11.5234 28.2463 11.5361 28.2463 11.5554C28.2463 11.5732 28.1594 11.5876 28.0496 11.5879C27.9414 11.5882 27.7253 11.6097 27.5695 11.6357C27.4136 11.6617 27.1905 11.683 27.0736 11.6831C26.953 11.6832 26.8611 11.697 26.8611 11.7152C26.8611 11.7328 26.8257 11.7472 26.7824 11.7472C26.7392 11.7472 26.7037 11.7615 26.7037 11.7791C26.7037 11.7967 26.725 11.8111 26.751 11.8111C26.7769 11.8111 26.7982 11.8265 26.7982 11.8453C26.7982 11.882 26.8755 11.9709 26.9075 11.9709C26.9291 11.9709 26.9496 11.9874 27.127 12.1469C27.1953 12.2083 27.2626 12.2585 27.2765 12.2585C27.2905 12.2585 27.3019 12.2739 27.3019 12.2927C27.3019 12.33 27.3794 12.4183 27.4121 12.4183C27.4447 12.4183 27.5223 12.5066 27.5223 12.5439C27.5223 12.5627 27.5371 12.5781 27.5552 12.5781C27.5733 12.5781 27.6208 12.6105 27.6607 12.65C27.7914 12.7794 27.8999 12.8658 27.9318 12.8658C27.9489 12.8658 27.963 12.8812 27.963 12.9C27.963 12.936 28.04 13.0256 28.0709 13.0256C28.0808 13.0256 28.2023 13.1406 28.3408 13.2813C28.4793 13.4219 28.605 13.5369 28.6202 13.5369C28.6353 13.5369 28.7848 13.6736 28.9522 13.8406C29.1197 14.0075 29.2637 14.1442 29.2724 14.1442C29.281 14.1442 29.3228 14.1795 29.3653 14.2226C29.4247 14.2829 29.4426 14.3347 29.4426 14.4464C29.4426 14.5263 29.4285 14.5916 29.4111 14.5916C29.3938 14.5916 29.379 14.6456 29.3783 14.7115C29.3775 14.7774 29.3565 14.8889 29.3315 14.9592C29.3066 15.0295 29.2859 15.141 29.2857 15.2069C29.2854 15.2728 29.2711 15.3267 29.2537 15.3267C29.2362 15.3267 29.2223 15.4119 29.2223 15.5185C29.2223 15.625 29.2083 15.7102 29.1908 15.7102C29.1735 15.7102 29.1593 15.7538 29.1593 15.8071C29.1593 15.8604 29.138 15.9557 29.1121 16.0188C29.0861 16.0819 29.0648 16.1965 29.0648 16.2734C29.0648 16.3504 29.0507 16.4134 29.0334 16.4134C29.0161 16.4134 29.0019 16.4925 29.0019 16.5891C29.0019 16.6858 28.9877 16.7649 28.9704 16.7649C28.9531 16.7649 28.9389 16.8229 28.9389 16.8938C28.9389 16.9647 28.9177 17.0743 28.8917 17.1374C28.8657 17.2005 28.8445 17.3079 28.8445 17.3761C28.8445 17.4442 28.8316 17.5 28.8159 17.5C28.8002 17.5 28.78 17.5755 28.7711 17.6678C28.7622 17.7601 28.7451 17.8823 28.7332 17.9395C28.714 18.0309 28.7194 18.0433 28.778 18.0433C28.8145 18.0433 28.8445 18.0292 28.8445 18.012C28.8445 17.9948 28.8799 17.9716 28.9232 17.9606C28.9665 17.9496 29.0019 17.9277 29.0019 17.912C29.0019 17.8964 29.0231 17.8835 29.0491 17.8835C29.0751 17.8835 29.0963 17.8692 29.0963 17.8516C29.0963 17.834 29.1247 17.8196 29.1593 17.8196C29.1939 17.8196 29.2223 17.8088 29.2224 17.7956C29.2227 17.7635 29.4048 17.6598 29.4609 17.6598C29.4855 17.6598 29.5056 17.6454 29.5056 17.6279C29.5056 17.6103 29.5268 17.5959 29.5528 17.5959C29.5788 17.5959 29.6001 17.5851 29.6002 17.5719C29.6005 17.5398 29.7825 17.4361 29.8387 17.4361C29.8633 17.4361 29.8834 17.4217 29.8834 17.4041C29.8834 17.3866 29.8985 17.3722 29.917 17.3722C29.9354 17.3722 29.997 17.3362 30.0537 17.2923C30.1105 17.2483 30.1804 17.2124 30.209 17.2124C30.2377 17.2124 30.2611 17.198 30.2611 17.1804C30.2611 17.1628 30.288 17.1485 30.3207 17.1485C30.3535 17.1485 30.3885 17.1269 30.3985 17.1005C30.4084 17.0741 30.4453 17.0526 30.4805 17.0526C30.5157 17.0526 30.5445 17.0382 30.5445 17.0206C30.5445 17.003 30.5657 16.9886 30.5917 16.9886C30.6177 16.9886 30.6389 16.9743 30.6389 16.9567C30.6389 16.9391 30.6673 16.9247 30.7019 16.9247C30.7365 16.9247 30.7648 16.9106 30.7648 16.8934C30.7648 16.8761 30.8003 16.853 30.8436 16.842C30.8868 16.831 30.9223 16.8091 30.9223 16.7934C30.9223 16.7777 30.9506 16.7649 30.9852 16.7649C31.0198 16.7649 31.0482 16.7505 31.0482 16.733C31.0482 16.7154 31.0694 16.701 31.0954 16.701C31.1214 16.701 31.1426 16.6869 31.1426 16.6697C31.1426 16.6524 31.178 16.6293 31.2213 16.6183C31.2646 16.6072 31.3 16.5854 31.3 16.5697C31.3 16.554 31.3284 16.5412 31.363 16.5412C31.3976 16.5412 31.426 16.5284 31.426 16.5127C31.426 16.497 31.4614 16.4752 31.5047 16.4641C31.5479 16.4531 31.5834 16.43 31.5834 16.4128C31.5834 16.3955 31.6046 16.3814 31.6306 16.3814C31.6566 16.3814 31.6778 16.367 31.6778 16.3494C31.6778 16.3319 31.7061 16.3175 31.7408 16.3175C31.7754 16.3175 31.8037 16.3031 31.8037 16.2855C31.8037 16.2679 31.824 16.2536 31.8487 16.2536C31.8734 16.2536 31.9159 16.231 31.9432 16.2034C31.9881 16.1577 31.9971 16.1577 32.0421 16.2034C32.0693 16.231 32.1118 16.2536 32.1365 16.2536C32.1613 16.2536 32.1815 16.2679 32.1815 16.2855C32.1815 16.3031 32.2034 16.3175 32.2301 16.3175C32.2568 16.3175 32.3096 16.3468 32.3475 16.3826C32.3854 16.4185 32.4485 16.456 32.4878 16.466C32.5271 16.476 32.5593 16.497 32.5593 16.5127C32.5593 16.5284 32.5876 16.5412 32.6223 16.5412C32.6569 16.5412 32.6852 16.5556 32.6852 16.5732C32.6852 16.5907 32.7058 16.6051 32.731 16.6051C32.7562 16.6051 32.8122 16.6411 32.8555 16.685C32.8988 16.729 32.9632 16.7649 32.9986 16.7649C33.034 16.7649 33.063 16.7793 33.063 16.7969C33.063 16.8145 33.0825 16.8288 33.1064 16.8288C33.1302 16.8288 33.1674 16.8504 33.1889 16.8768C33.2105 16.9032 33.2547 16.9247 33.2872 16.9247C33.3197 16.9247 33.3463 16.9391 33.3463 16.9567C33.3463 16.9743 33.3676 16.9886 33.3935 16.9886C33.4195 16.9886 33.4408 17.003 33.4408 17.0206C33.4408 17.0382 33.4676 17.0526 33.5004 17.0526C33.5331 17.0526 33.5681 17.0741 33.5781 17.1005C33.588 17.1269 33.625 17.1485 33.6602 17.1485C33.6953 17.1485 33.7241 17.1628 33.7241 17.1804C33.7241 17.198 33.7524 17.2124 33.7871 17.2124C33.8217 17.2124 33.85 17.2268 33.85 17.2443C33.85 17.2619 33.8713 17.2763 33.8973 17.2763C33.9232 17.2763 33.9445 17.2904 33.9445 17.3076C33.9445 17.3249 33.9799 17.348 34.0232 17.359C34.0665 17.3701 34.1019 17.3919 34.1019 17.4076C34.1019 17.4233 34.1302 17.4361 34.1648 17.4361C34.1995 17.4361 34.2278 17.4489 34.2278 17.4646C34.2278 17.4803 34.2632 17.5021 34.3065 17.5131C34.3498 17.5242 34.3852 17.5473 34.3852 17.5645C34.3852 17.5818 34.4065 17.5959 34.4324 17.5959C34.4584 17.5959 34.4797 17.6103 34.4797 17.6279C34.4797 17.6454 34.508 17.6598 34.5426 17.6598C34.5772 17.6598 34.6056 17.6739 34.6056 17.6912C34.6056 17.7084 34.641 17.7315 34.6843 17.7426C34.7276 17.7536 34.763 17.7754 34.763 17.7911C34.763 17.8068 34.7913 17.8196 34.826 17.8196C34.8606 17.8196 34.8889 17.834 34.8889 17.8516C34.8889 17.8692 34.9102 17.8835 34.9361 17.8835C34.9621 17.8835 34.9834 17.8976 34.9834 17.9149C34.9834 17.9321 35.0188 17.9553 35.0621 17.9663C35.1053 17.9773 35.1408 17.9992 35.1408 18.0148C35.1408 18.0305 35.1691 18.0433 35.2037 18.0433C35.2457 18.0433 35.2667 18.022 35.2667 17.9794C35.2667 17.9443 35.2539 17.9155 35.2381 17.9155C35.2224 17.9155 35.2028 17.84 35.1944 17.7477C35.1861 17.6554 35.1549 17.4864 35.125 17.3722C35.0952 17.2579 35.064 17.0889 35.0556 16.9966C35.0473 16.9043 35.029 16.8288 35.015 16.8288C35.0009 16.8288 34.9828 16.7605 34.9746 16.677C34.9496 16.4218 34.8811 16.0938 34.8528 16.0938C34.838 16.0938 34.826 16.0075 34.826 15.902C34.826 15.7955 34.812 15.7102 34.7945 15.7102C34.7772 15.7102 34.763 15.6545 34.763 15.5863C34.763 15.5181 34.7417 15.4107 34.7158 15.3476C34.6898 15.2845 34.6685 15.1749 34.6685 15.104C34.6685 15.0331 34.6544 14.9751 34.6371 14.9751C34.6198 14.9751 34.6056 14.9032 34.6056 14.8153C34.6056 14.7275 34.5914 14.6555 34.5741 14.6555C34.5568 14.6555 34.5426 14.5758 34.5426 14.4783C34.5426 14.3327 34.5564 14.287 34.6199 14.2226C34.6624 14.1795 34.7059 14.1442 34.7166 14.1442C34.7422 14.1442 34.826 14.0586 34.826 14.0323C34.826 14.0057 34.9099 13.9205 34.9361 13.9205C34.9688 13.9205 35.0463 13.8322 35.0463 13.7949C35.0463 13.7761 35.0611 13.7607 35.0792 13.7607C35.0973 13.7607 35.1448 13.7283 35.1848 13.6887C35.3085 13.5663 35.4234 13.473 35.4505 13.473C35.4648 13.473 35.4954 13.4371 35.5185 13.3931C35.5417 13.3492 35.5724 13.3132 35.5868 13.3132C35.6012 13.3132 35.7263 13.1982 35.8648 13.0575C36.0034 12.9169 36.129 12.8018 36.144 12.8018C36.159 12.8018 36.2722 12.7012 36.3957 12.5781C36.519 12.4551 36.6342 12.3544 36.6517 12.3544C36.6691 12.3544 36.6834 12.339 36.6834 12.3202C36.6834 12.2835 36.7606 12.1946 36.7924 12.1946C36.8124 12.1946 36.8535 12.1584 37.1005 11.9237C37.1827 11.8455 37.25 11.7738 37.25 11.7643C37.25 11.7549 37.2075 11.7472 37.1556 11.7472C37.1036 11.7472 37.0611 11.7328 37.0611 11.7152C37.0611 11.6976 36.9868 11.6832 36.8959 11.6831C36.8049 11.683 36.6031 11.6617 36.4472 11.6357C36.2914 11.6097 36.0754 11.5882 35.9672 11.5879C35.8573 11.5876 35.7704 11.5732 35.7704 11.5554C35.7704 11.5361 35.6392 11.5234 35.4398 11.5234C35.258 11.5234 35.1093 11.5112 35.1093 11.4963C35.1093 11.4814 34.9678 11.4604 34.7949 11.4497C34.622 11.439 34.4529 11.4153 34.4192 11.397C34.3855 11.3786 34.2294 11.3636 34.0725 11.3636C33.9032 11.3636 33.7871 11.3506 33.7871 11.3317C33.7871 11.3141 33.7233 11.2997 33.6454 11.2997C33.5153 11.2997 33.5037 11.2932 33.5037 11.2198C33.5037 11.1759 33.4896 11.1399 33.4722 11.1399C33.4549 11.1399 33.4403 11.1147 33.4398 11.084C33.4392 11.0532 33.418 11.0001 33.3925 10.966C33.3671 10.9319 33.3463 10.878 33.3463 10.8462C33.3463 10.8144 33.3322 10.7883 33.3148 10.7883C33.2975 10.7883 33.2834 10.7524 33.2834 10.7084C33.2834 10.6645 33.2695 10.6285 33.2525 10.6285C33.2355 10.6285 33.2127 10.5926 33.2019 10.5486C33.191 10.5047 33.1695 10.4687 33.154 10.4687C33.1386 10.4687 33.126 10.4328 33.126 10.3888C33.126 10.3449 33.1118 10.3089 33.0945 10.3089C33.0772 10.3089 33.063 10.273 33.063 10.229C33.063 10.1851 33.05 10.1491 33.034 10.1491C33.0181 10.1491 32.9957 10.106 32.9843 10.0533C32.9729 10.0005 32.9505 9.95738 32.9346 9.95738C32.9186 9.95738 32.9056 9.92142 32.9056 9.87748C32.9056 9.83353 32.8914 9.79758 32.8741 9.79758C32.8568 9.79758 32.8426 9.76162 32.8426 9.71767C32.8426 9.67373 32.8287 9.63777 32.8117 9.63777C32.7948 9.63777 32.772 9.60182 32.7611 9.55787C32.7503 9.51393 32.7287 9.47797 32.7133 9.47797C32.6978 9.47797 32.6852 9.43482 32.6852 9.38209C32.6852 9.32936 32.6742 9.28621 32.6607 9.28621C32.6472 9.28621 32.6086 9.2143 32.575 9.12641C32.5414 9.03852 32.5029 8.96661 32.4894 8.96661C32.4759 8.96661 32.4648 8.93065 32.4648 8.88671C32.4648 8.84276 32.4507 8.8068 32.4334 8.8068C32.416 8.8068 32.4019 8.78421 32.4019 8.75659C32.4019 8.72895 32.3806 8.68478 32.3547 8.65841C32.3287 8.63205 32.3074 8.57554 32.3074 8.53287C32.3074 8.49017 32.2933 8.45524 32.276 8.45524C32.2586 8.45524 32.2445 8.41929 32.2445 8.37534C32.2445 8.33139 32.2303 8.29544 32.213 8.29544C32.1957 8.29544 32.1815 8.26668 32.1815 8.23152C32.1815 8.19636 32.1689 8.1676 32.1534 8.1676C32.138 8.1676 32.1165 8.13164 32.1056 8.0877C32.0947 8.04375 32.072 8.0078 32.055 8.0078C32.038 8.0078 32.0241 7.97184 32.0241 7.9279C32.0241 7.88395 32.0099 7.848 31.9926 7.848C31.9753 7.848 31.9611 7.86781 31.9611 7.89204ZM19.4 18.0602C19.3741 18.0653 19.2466 18.0868 19.1167 18.1079C17.2919 18.4045 15.9286 20.1232 16.0117 22.0224C16.0571 23.0596 16.4368 23.9261 17.1543 24.6292C18.184 25.6383 19.6303 25.9668 21.0079 25.5047C22.0938 25.1404 22.9869 24.217 23.3668 23.066C23.6759 22.1291 23.5921 21.0256 23.1443 20.1365C22.5009 18.8594 21.1603 18.0313 19.7621 18.0472C19.5889 18.0492 19.426 18.055 19.4 18.0602ZM7.74035 22.6931C7.42512 22.7598 7.23233 22.8289 6.9502 22.9764C6.26242 23.3357 5.76432 23.9552 5.52736 24.746C5.4524 24.9962 5.44321 25.0788 5.44274 25.5061C5.44211 26.0749 5.49701 26.3276 5.72195 26.7915C6.07778 27.5254 6.68969 28.0443 7.49117 28.2918C7.73761 28.3679 7.81896 28.3772 8.23986 28.3777C8.80014 28.3783 9.0491 28.3226 9.50608 28.0943C10.2289 27.733 10.74 27.1118 10.9839 26.2981C11.0588 26.0479 11.068 25.9653 11.0685 25.538C11.0691 24.9692 11.0142 24.7165 10.7893 24.2526C10.4327 23.5172 9.81246 22.9922 9.02004 22.7549C8.67245 22.6509 8.07588 22.622 7.74035 22.6931ZM30.7334 22.7067C30.3902 22.7848 30.2388 22.8415 29.947 23.0013C29.2734 23.3701 28.7631 24.031 28.5558 24.8029C28.4577 25.1684 28.4574 25.8741 28.5553 26.2412C28.8192 27.2308 29.5498 27.9873 30.5356 28.2918C30.782 28.3679 30.8634 28.3772 31.2843 28.3777C31.8446 28.3783 32.0935 28.3226 32.5505 28.0943C33.2733 27.733 33.7845 27.1118 34.0283 26.2981C34.1032 26.0479 34.1124 25.9653 34.1129 25.538C34.1135 24.9692 34.0586 24.7165 33.8337 24.2526C33.4771 23.5172 32.8569 22.9922 32.0645 22.7549C31.6816 22.6403 31.1152 22.6198 30.7334 22.7067ZM18.5815 27.1512C18.5556 27.1687 18.3678 27.1832 18.1644 27.1835C17.9391 27.1838 17.7945 27.1965 17.7945 27.216C17.7945 27.2347 17.6843 27.2479 17.5269 27.2479C17.3797 27.2479 17.2593 27.2604 17.2593 27.2757C17.2593 27.2911 17.1462 27.3136 17.008 27.3258C16.8698 27.3381 16.7485 27.3615 16.7385 27.3779C16.7286 27.3943 16.6292 27.4077 16.5176 27.4077C16.4061 27.4077 16.3149 27.4207 16.3149 27.4364C16.3149 27.4523 16.2546 27.4729 16.1811 27.4822C15.9187 27.5156 15.6537 27.5768 15.6537 27.6039C15.6537 27.619 15.59 27.6314 15.5121 27.6314C15.4342 27.6314 15.3704 27.6458 15.3704 27.6634C15.3704 27.681 15.3244 27.6958 15.2681 27.6964C15.2118 27.6969 15.1383 27.7185 15.1047 27.7443C15.0711 27.7701 14.9967 27.7912 14.9394 27.7912C14.8821 27.7912 14.8352 27.8056 14.8352 27.8232C14.8352 27.8408 14.7856 27.8552 14.725 27.8552C14.6644 27.8552 14.6149 27.8695 14.6149 27.8871C14.6149 27.9047 14.5855 27.9191 14.5497 27.9191C14.5138 27.9191 14.4632 27.9407 14.4372 27.967C14.4112 27.9934 14.3556 28.015 14.3136 28.015C14.2715 28.015 14.2371 28.0293 14.2371 28.0469C14.2371 28.0645 14.2017 28.0789 14.1584 28.0789C14.1151 28.0789 14.0797 28.0933 14.0797 28.1108C14.0797 28.1284 14.0513 28.1428 14.0167 28.1428C13.9821 28.1428 13.9537 28.1569 13.9537 28.1742C13.9537 28.1914 13.9183 28.2145 13.875 28.2255C13.8318 28.2366 13.7963 28.2584 13.7963 28.2741C13.7963 28.2898 13.768 28.3026 13.7334 28.3026C13.6987 28.3026 13.6704 28.317 13.6704 28.3346C13.6704 28.3521 13.6552 28.3665 13.6367 28.3665C13.6181 28.3665 13.5832 28.3845 13.5591 28.4065C13.4646 28.4925 13.4205 28.5263 13.4028 28.5263C13.3926 28.5263 13.3461 28.5623 13.2995 28.6062C13.2528 28.6502 13.2028 28.6861 13.1884 28.6861C13.1534 28.6861 13.0723 28.7701 13.0723 28.8063C13.0723 28.8222 13.0369 28.8544 12.9936 28.8779C12.9503 28.9014 12.9149 28.9405 12.9149 28.9647C12.9149 28.989 12.8794 29.0421 12.8362 29.0828C12.7929 29.1236 12.7575 29.1732 12.7575 29.1932C12.7575 29.2131 12.7433 29.2295 12.726 29.2295C12.7087 29.2295 12.6945 29.2582 12.6945 29.2934C12.6945 29.3285 12.6803 29.3573 12.663 29.3573C12.6457 29.3573 12.6315 29.3865 12.6315 29.4222C12.6315 29.4579 12.6103 29.4954 12.5843 29.5055C12.5574 29.516 12.5371 29.5637 12.5371 29.6164C12.5371 29.6672 12.5229 29.7089 12.5056 29.7089C12.4883 29.7089 12.4741 29.7808 12.4741 29.8687C12.4741 29.9565 12.46 30.0285 12.4426 30.0285C12.4218 30.0285 12.4112 31.7224 12.4112 35.0462L12.4111 36.7528H13.4815H14.5519L14.5519 36.3886C14.5519 33.9596 14.5626 32.7131 14.5834 32.7131C14.6007 32.7131 14.6149 32.6772 14.6149 32.6332C14.6149 32.5893 14.6281 32.5533 14.6442 32.5533C14.6604 32.5533 14.6826 32.5246 14.6936 32.4894C14.7045 32.4542 14.7409 32.4255 14.7744 32.4255C14.8078 32.4255 14.8352 32.4068 14.8352 32.384C14.8352 32.2729 15.2537 32.2279 15.4364 32.3192C15.5469 32.3745 15.6537 32.4772 15.6537 32.5281C15.6537 32.5441 15.6679 32.5482 15.6852 32.5373C15.7025 32.5265 15.7167 32.5472 15.7167 32.5834C15.7167 32.6196 15.7309 32.6492 15.7482 32.6492C15.769 32.6492 15.7797 33.9063 15.7797 36.3566L15.7796 36.7528H19.7612H23.7427L23.7515 36.3672C23.7584 33.4446 23.7685 32.6677 23.7996 32.6572C23.8212 32.6499 23.8389 32.624 23.8389 32.5997C23.8389 32.5318 24.0094 32.3702 24.1394 32.3151C24.3386 32.2306 24.7204 32.2758 24.7204 32.384C24.7204 32.4068 24.7478 32.4255 24.7813 32.4255C24.8147 32.4255 24.8511 32.4542 24.8621 32.4894C24.8731 32.5246 24.8953 32.5533 24.9114 32.5533C24.9276 32.5533 24.9408 32.5893 24.9408 32.6332C24.9408 32.6772 24.9549 32.7131 24.9723 32.7131C24.9931 32.7131 25.0037 33.9596 25.0037 36.3886L25.0037 36.7528H26.0741H27.1445L27.1445 35.0462C27.1445 31.7224 27.1338 30.0285 27.113 30.0285C27.0957 30.0285 27.0815 29.9565 27.0815 29.8687C27.0815 29.7808 27.0673 29.7089 27.05 29.7089C27.0327 29.7089 27.0186 29.6878 27.0186 29.662C27.0186 29.6042 26.9171 29.3772 26.8848 29.3626C26.8718 29.3567 26.8611 29.3234 26.8611 29.2886C26.8611 29.2537 26.8116 29.1777 26.751 29.1197C26.6904 29.0616 26.6408 28.9907 26.6408 28.962C26.6408 28.9333 26.6219 28.9098 26.5989 28.9098C26.5758 28.9098 26.538 28.8739 26.5149 28.8299C26.4917 28.786 26.4611 28.75 26.4468 28.75C26.423 28.75 26.3125 28.663 26.2138 28.5663C26.1914 28.5443 26.164 28.5263 26.1528 28.5263C26.1417 28.5263 26.1128 28.5084 26.0887 28.4864C25.9845 28.3915 25.9489 28.3665 25.918 28.3665C25.9 28.3665 25.8852 28.3521 25.8852 28.3346C25.8852 28.317 25.8569 28.3026 25.8223 28.3026C25.7876 28.3026 25.7593 28.2898 25.7593 28.2741C25.7593 28.2584 25.7239 28.2366 25.6806 28.2255C25.6373 28.2145 25.6019 28.1914 25.6019 28.1742C25.6019 28.1569 25.5736 28.1428 25.5389 28.1428C25.5043 28.1428 25.476 28.1284 25.476 28.1108C25.476 28.0933 25.4405 28.0789 25.3973 28.0789C25.354 28.0789 25.3186 28.0645 25.3186 28.0469C25.3186 28.0293 25.2892 28.015 25.2534 28.015C25.2175 28.015 25.1669 27.9934 25.1409 27.967C25.1149 27.9407 25.0593 27.9191 25.0172 27.9191C24.9752 27.9191 24.9408 27.9047 24.9408 27.8871C24.9408 27.8695 24.8912 27.8552 24.8306 27.8552C24.77 27.8552 24.7204 27.8424 24.7204 27.8268C24.7204 27.8112 24.6567 27.7888 24.5787 27.7769C24.5008 27.7651 24.4371 27.7419 24.4371 27.7254C24.4371 27.7088 24.3804 27.6954 24.3111 27.6954C24.2419 27.6954 24.1852 27.681 24.1852 27.6634C24.1852 27.6458 24.1215 27.6314 24.0436 27.6314C23.9656 27.6314 23.9019 27.6194 23.9019 27.6048C23.9019 27.5778 23.6017 27.5139 23.3274 27.4826C23.2451 27.4732 23.1778 27.4525 23.1778 27.4366C23.1778 27.4207 23.099 27.4077 23.0026 27.4077C22.9062 27.4077 22.7999 27.3928 22.7663 27.3745C22.7327 27.3563 22.6128 27.3326 22.4998 27.3219C22.3868 27.3112 22.2869 27.2901 22.2777 27.2751C22.2686 27.2602 22.1345 27.2479 21.9797 27.2479C21.8244 27.2479 21.6982 27.2344 21.6982 27.2178C21.6982 27.1781 21.1453 27.1545 19.7621 27.1352C19.0356 27.1251 18.6118 27.1308 18.5815 27.1512ZM6.14635 29.613C6.14635 29.6322 6.01579 29.6449 5.81765 29.6449C5.63685 29.6449 5.48133 29.6574 5.47205 29.6727C5.46276 29.688 5.34174 29.7105 5.20313 29.7228C5.06455 29.7351 4.943 29.7585 4.93299 29.7749C4.92301 29.7913 4.82362 29.8047 4.71208 29.8047C4.5979 29.8047 4.50931 29.8187 4.50931 29.8367C4.50931 29.8543 4.44641 29.8687 4.3695 29.8687C4.29259 29.8687 4.22195 29.8813 4.2125 29.8969C4.20306 29.9124 4.11721 29.935 4.02176 29.9471C3.92631 29.9592 3.8482 29.9825 3.8482 29.9988C3.8482 30.0151 3.77737 30.0285 3.69079 30.0285C3.60422 30.0285 3.53339 30.0428 3.53339 30.0604C3.53339 30.078 3.48736 30.0929 3.43107 30.0935C3.37482 30.0941 3.29334 30.1152 3.25005 30.1403C3.20677 30.1654 3.13949 30.1865 3.10052 30.1871C3.06154 30.1877 3.02968 30.2026 3.02968 30.2202C3.02968 30.2378 2.9801 30.2522 2.9195 30.2522C2.8589 30.2522 2.80931 30.2666 2.80931 30.2841C2.80931 30.3017 2.77997 30.3161 2.74412 30.3161C2.70823 30.3161 2.65764 30.3377 2.63166 30.364C2.60569 30.3904 2.55712 30.412 2.52375 30.412C2.49034 30.412 2.46302 30.4264 2.46302 30.4439C2.46302 30.4615 2.4276 30.4759 2.38431 30.4759C2.34103 30.4759 2.30561 30.4887 2.30561 30.5044C2.30561 30.5201 2.27019 30.5419 2.22691 30.553C2.18362 30.564 2.1482 30.5871 2.1482 30.6044C2.1482 30.6216 2.12695 30.6357 2.10098 30.6357C2.07501 30.6357 2.05376 30.6501 2.05376 30.6677C2.05376 30.6852 2.02543 30.6996 1.9908 30.6996C1.95617 30.6996 1.92783 30.714 1.92783 30.7316C1.92783 30.7492 1.90998 30.7635 1.88817 30.7635C1.86635 30.7635 1.81028 30.7995 1.76359 30.8434C1.71694 30.8874 1.67003 30.9234 1.65936 30.9234C1.62737 30.9234 1.55006 31.0122 1.55006 31.0489C1.55006 31.0677 1.53526 31.0832 1.51716 31.0832C1.48253 31.0832 1.32969 31.2265 1.32969 31.2589C1.32969 31.2693 1.29427 31.3138 1.25098 31.3577C1.20769 31.4017 1.17228 31.4585 1.17228 31.4841C1.17228 31.5097 1.15811 31.5306 1.1408 31.5306C1.12348 31.5306 1.10932 31.5581 1.10932 31.5919C1.10932 31.6255 1.09871 31.6579 1.0857 31.6638C1.04141 31.6837 0.951908 31.9161 0.951908 32.0111C0.951908 32.0632 0.937741 32.1059 0.920426 32.1059C0.899617 32.1059 0.888945 33.4536 0.888945 36.0849L0.888916 36.7528H1.81762H2.74632L2.74635 37.3333C2.74635 35.5473 2.75724 34.5957 2.77783 34.5828C2.79515 34.5719 2.80931 34.5418 2.80931 34.5158C2.80931 34.4441 3.04719 34.2153 3.12167 34.2153C3.15766 34.2153 3.18709 34.2009 3.18709 34.1833C3.18709 34.1657 3.26501 34.1513 3.36024 34.1513C3.45547 34.1513 3.53339 34.1657 3.53339 34.1833C3.53339 34.2009 3.56282 34.2153 3.59881 34.2153C3.68267 34.2153 3.91116 34.4481 3.91116 34.5336C3.91116 34.5694 3.92533 34.5988 3.94265 34.5988C3.96339 34.5988 3.97413 35.531 3.97413 37.3314L3.9741 36.7528H7.56308H11.1521L11.1441 35.0098L11.1362 29.9556L10.9945 29.9126C10.9166 29.889 10.7855 29.8694 10.7033 29.8691C10.621 29.8689 10.5538 29.8555 10.5538 29.8394C10.5538 29.8233 10.4652 29.8026 10.357 29.7933C10.0591 29.7676 9.6173 29.6959 9.59083 29.6689C9.57789 29.6557 9.42804 29.6449 9.25775 29.6449C9.07236 29.6449 8.9482 29.6321 8.9482 29.613C8.9482 29.5921 8.46023 29.581 7.54727 29.581C6.63431 29.581 6.14635 29.5921 6.14635 29.613ZM30.6074 29.613C30.6074 29.6322 30.4763 29.6449 30.2769 29.6449C30.0951 29.6449 29.9463 29.6566 29.9463 29.6708C29.9463 29.6972 29.5501 29.7619 29.1986 29.7929C29.0904 29.8024 29.0019 29.822 29.0019 29.8365C29.0019 29.8509 28.9275 29.87 28.8366 29.8789C28.7457 29.8877 28.6147 29.9073 28.5454 29.9223L28.4195 29.9496L28.4115 35.0068L28.4035 36.7528H31.9925H35.5815L35.5815 37.3314C35.5815 35.531 35.5922 34.5988 35.613 34.5988C35.6303 34.5988 35.6445 34.5694 35.6445 34.5336C35.6445 34.4481 35.873 34.2153 35.9568 34.2153C35.9928 34.2153 36.0222 34.2009 36.0222 34.1833C36.0222 34.1657 36.1002 34.1513 36.1954 34.1513C36.2906 34.1513 36.3685 34.1657 36.3685 34.1833C36.3685 34.2009 36.398 34.2153 36.434 34.2153C36.5178 34.2153 36.7463 34.4481 36.7463 34.5336C36.7463 34.5694 36.7605 34.5988 36.7778 34.5988C36.7986 34.5988 36.8093 35.531 36.8093 37.3314L36.8093 36.7528H37.738H38.6667L38.6667 36.0849C38.6667 33.4536 38.656 32.1059 38.6352 32.1059C38.6179 32.1059 38.6037 32.0566 38.6037 31.9963C38.6037 31.936 38.5825 31.8652 38.5565 31.8388C38.5305 31.8124 38.5093 31.7611 38.5093 31.7246C38.5093 31.6882 38.4951 31.6584 38.4778 31.6584C38.4605 31.6584 38.4463 31.6297 38.4463 31.5945C38.4463 31.5594 38.4322 31.5306 38.4148 31.5306C38.3975 31.5306 38.3834 31.5097 38.3834 31.4841C38.3834 31.4585 38.3479 31.4017 38.3047 31.3577C38.2614 31.3138 38.226 31.2689 38.226 31.2581C38.226 31.2321 38.1416 31.1471 38.1158 31.1471C38.0895 31.1471 38.0056 31.0619 38.0056 31.0352C38.0056 31.009 37.9219 30.9234 37.8962 30.9234C37.8855 30.9234 37.8414 30.8874 37.7981 30.8434C37.7548 30.7995 37.6988 30.7635 37.6736 30.7635C37.6484 30.7635 37.6278 30.7492 37.6278 30.7316C37.6278 30.714 37.6066 30.6996 37.5806 30.6996C37.5546 30.6996 37.5334 30.6852 37.5334 30.6677C37.5334 30.6501 37.505 30.6357 37.4704 30.6357C37.4358 30.6357 37.4074 30.6216 37.4074 30.6044C37.4074 30.5871 37.372 30.564 37.3287 30.553C37.2854 30.5419 37.25 30.5201 37.25 30.5044C37.25 30.4887 37.2217 30.4759 37.1871 30.4759C37.1524 30.4759 37.1241 30.4615 37.1241 30.4439C37.1241 30.4264 37.0897 30.412 37.0476 30.412C37.0056 30.412 36.9499 30.3904 36.924 30.364C36.898 30.3377 36.8474 30.3161 36.8115 30.3161C36.7757 30.3161 36.7463 30.3017 36.7463 30.2841C36.7463 30.2666 36.6967 30.2522 36.6361 30.2522C36.5755 30.2522 36.526 30.2378 36.526 30.2202C36.526 30.2026 36.4941 30.1877 36.4551 30.1871C36.4162 30.1865 36.3489 30.1654 36.3056 30.1403C36.2623 30.1152 36.1808 30.0941 36.1246 30.0935C36.0683 30.0929 36.0222 30.078 36.0222 30.0604C36.0222 30.0428 35.9609 30.0285 35.8858 30.0285C35.8108 30.0285 35.7397 30.0186 35.7278 30.0065C35.6913 29.9694 35.2895 29.8725 35.1644 29.8705C35.0995 29.8695 35.0463 29.8543 35.0463 29.8367C35.0463 29.8187 34.9577 29.8047 34.8436 29.8047C34.732 29.8047 34.6326 29.7913 34.6226 29.7749C34.6126 29.7585 34.4911 29.7351 34.3525 29.7228C34.2139 29.7105 34.0929 29.688 34.0836 29.6727C34.0743 29.6574 33.9188 29.6449 33.738 29.6449C33.5398 29.6449 33.4093 29.6322 33.4093 29.613C33.4093 29.5921 32.9213 29.581 32.0084 29.581C31.0954 29.581 30.6074 29.5921 30.6074 29.613Z" fill="#444444"/>
</svg>
