<svg width="88" height="100" viewBox="0 0 88 100" fill="none" xmlns="http://www.w3.org/2000/svg">
<path d="M85.0156 44.9219H73.2969C71.6789 44.9219 70.3672 46.2336 70.3672 47.8516C70.3672 49.4695 71.6789 50.7812 73.2969 50.7812H76.2266V65.4297C76.2266 65.9682 75.7885 66.4062 75.25 66.4062H70.2666C69.0338 65.1986 67.3465 64.4531 65.4844 64.4531H22.5156C20.6535 64.4531 18.9662 65.1986 17.7334 66.4062H12.75C12.2115 66.4062 11.7734 65.9682 11.7734 65.4297V50.7812H14.7031C16.3211 50.7812 17.6328 49.4695 17.6328 47.8516C17.6328 46.2336 16.3211 44.9219 14.7031 44.9219H2.98438C1.36641 44.9219 0.0546875 46.2336 0.0546875 47.8516C0.0546875 49.4695 1.36641 50.7812 2.98438 50.7812H5.91406V65.4297C5.91406 69.199 8.98066 72.2656 12.75 72.2656H15.6797V73.2422C15.6797 74.8602 16.9914 76.1719 18.6094 76.1719H48.6459L61.4596 88.9855C62.0316 89.5578 62.7814 89.8438 63.5312 89.8438C64.2811 89.8438 65.0309 89.5578 65.6027 88.9855C66.7469 87.8414 66.7469 85.9865 65.6027 84.8424L56.9322 76.1719H69.3906C71.0086 76.1719 72.3203 74.8602 72.3203 73.2422V72.2656H75.25C79.0193 72.2656 82.0859 69.199 82.0859 65.4297V50.7812H85.0156C86.6336 50.7812 87.9453 49.4695 87.9453 47.8516C87.9453 46.2336 86.6336 44.9219 85.0156 44.9219V44.9219Z" fill="#6E6D6D"/>
<path d="M61.5781 94.1406H51.3242V82.0312H36.6758V94.1406H26.4219C24.8039 94.1406 23.4922 95.4523 23.4922 97.0703C23.4922 98.6883 24.8039 100 26.4219 100H61.5781C63.1961 100 64.5078 98.6883 64.5078 97.0703C64.5078 95.4523 63.1961 94.1406 61.5781 94.1406Z" fill="#6E6D6D"/>
<path d="M66.4609 30.2734C66.4609 25.4271 62.5182 21.4844 57.6719 21.4844H46.9297V14.6484H55.7188C57.3367 14.6484 58.6484 13.3367 58.6484 11.7188V6.83594C58.6484 3.06055 55.5879 0 51.8125 0H36.1875C32.4121 0 29.3516 3.06055 29.3516 6.83594V11.7188C29.3516 13.3367 30.6633 14.6484 32.2812 14.6484H41.0703V21.4844H30.3281C25.4818 21.4844 21.5391 25.4271 21.5391 30.2734V58.5938H66.4609V30.2734Z" fill="#6E6D6D"/>
</svg>
