<svg width="200" height="200" viewBox="0 0 200 200" fill="none" xmlns="http://www.w3.org/2000/svg">
<g filter="url(#filter0_i_72_6897)">
<circle cx="100" cy="100" r="89" stroke="#A99797" stroke-width="22"/>
</g>
<g clip-path="url(#clip0_72_6897)" filter="url(#filter1_i_72_6897)">
<path fill-rule="evenodd" clip-rule="evenodd" d="M68.9757 53.0298C60.773 54.4103 54.1579 61.0748 52.8177 69.309C51.7827 75.668 53.9228 81.8287 58.7494 86.3847C61.3126 88.8041 63.9232 90.2481 67.5404 91.2467C69.0939 91.6756 69.1633 91.678 82.0502 91.7458C91.3354 91.7946 95.464 91.7519 96.6422 91.5946L98.2852 91.3754L100.989 94.059C102.477 95.5348 103.96 96.8756 104.285 97.0383C105.562 97.6762 107.203 97.134 107.853 95.8591C108.197 95.1842 108.226 94.7745 108.226 90.4392V85.7493L108.783 85.2152C110.424 83.6431 112.373 80.0063 113.172 77.0239C113.589 75.4664 113.654 74.8485 113.662 72.3612C113.671 69.218 113.365 67.5601 112.286 64.9089C111.094 61.9795 108.58 58.7108 105.981 56.711C103.615 54.8905 100.415 53.5155 97.404 53.0253C95.1325 52.6556 71.1769 52.6594 68.9757 53.0298ZM73.4533 69.9588C74.2741 70.3776 74.9283 71.4433 74.9283 72.3612C74.9283 73.7751 73.5608 75.136 72.1399 75.136C71.2795 75.136 70.1367 74.4166 69.7297 73.6187C69.0466 72.2796 69.4754 70.8177 70.7834 70.0258C71.6691 69.4897 72.493 69.469 73.4533 69.9588ZM84.5524 69.9588C85.3731 70.3776 86.0274 71.4433 86.0274 72.3612C86.0274 73.7751 84.6598 75.136 83.239 75.136C82.3786 75.136 81.2358 74.4166 80.8288 73.6187C80.1456 72.2796 80.5744 70.8177 81.8825 70.0258C82.7682 69.4897 83.5921 69.469 84.5524 69.9588ZM95.6514 69.9588C96.4722 70.3776 97.1265 71.4433 97.1265 72.3612C97.1265 73.7751 95.7589 75.136 94.338 75.136C93.4777 75.136 92.3348 74.4166 91.9279 73.6187C91.2447 72.2796 91.6735 70.8177 92.9815 70.0258C93.8672 69.4897 94.6912 69.469 95.6514 69.9588ZM102.584 103.083C98.6874 103.654 94.6385 105.719 91.7507 108.607C89.246 111.112 87.4942 114.212 86.5628 117.787C86.1991 119.184 86.1338 119.884 86.141 122.307C86.1486 124.794 86.2133 125.412 86.6308 126.97C87.43 129.952 89.3784 133.589 91.0196 135.161L91.577 135.695V140.478C91.577 144.906 91.6045 145.314 91.9493 145.99C92.5997 147.265 94.2405 147.807 95.5171 147.169C95.8427 147.006 97.2795 145.712 98.7101 144.293L101.311 141.713L116.006 141.673L130.701 141.634L132.269 141.196C135.899 140.182 138.684 138.628 141.184 136.221C149.231 128.474 149.277 116.247 141.29 108.496C138.554 105.842 136.209 104.53 132.181 103.403C130.716 102.992 130.567 102.988 117.197 102.954C109.77 102.935 103.194 102.993 102.584 103.083ZM106.75 119.905C107.571 120.323 108.226 121.389 108.226 122.307C108.226 123.721 106.858 125.082 105.437 125.082C104.577 125.082 103.434 124.362 103.027 123.565C102.344 122.225 102.773 120.764 104.081 119.972C104.966 119.436 105.79 119.415 106.75 119.905ZM117.85 119.905C118.67 120.323 119.325 121.389 119.325 122.307C119.325 123.721 117.957 125.082 116.536 125.082C115.676 125.082 114.533 124.362 114.126 123.565C113.443 122.225 113.872 120.764 115.18 119.972C116.065 119.436 116.889 119.415 117.85 119.905ZM128.949 119.905C129.769 120.323 130.424 121.389 130.424 122.307C130.424 123.721 129.056 125.082 127.635 125.082C126.775 125.082 125.632 124.362 125.225 123.565C124.542 122.225 124.971 120.764 126.279 119.972C127.164 119.436 127.988 119.415 128.949 119.905Z" fill="#6E6D6D"/>
</g>
<defs>
<filter id="filter0_i_72_6897" x="0" y="0" width="200" height="204" filterUnits="userSpaceOnUse" color-interpolation-filters="sRGB">
<feFlood flood-opacity="0" result="BackgroundImageFix"/>
<feBlend mode="normal" in="SourceGraphic" in2="BackgroundImageFix" result="shape"/>
<feColorMatrix in="SourceAlpha" type="matrix" values="0 0 0 0 0 0 0 0 0 0 0 0 0 0 0 0 0 0 127 0" result="hardAlpha"/>
<feOffset dy="4"/>
<feGaussianBlur stdDeviation="2"/>
<feComposite in2="hardAlpha" operator="arithmetic" k2="-1" k3="1"/>
<feColorMatrix type="matrix" values="0 0 0 0 0 0 0 0 0 0 0 0 0 0 0 0 0 0 0.25 0"/>
<feBlend mode="normal" in2="shape" result="effect1_innerShadow_72_6897"/>
</filter>
<filter id="filter1_i_72_6897" x="52" y="52" width="96" height="100" filterUnits="userSpaceOnUse" color-interpolation-filters="sRGB">
<feFlood flood-opacity="0" result="BackgroundImageFix"/>
<feBlend mode="normal" in="SourceGraphic" in2="BackgroundImageFix" result="shape"/>
<feColorMatrix in="SourceAlpha" type="matrix" values="0 0 0 0 0 0 0 0 0 0 0 0 0 0 0 0 0 0 127 0" result="hardAlpha"/>
<feOffset dy="4"/>
<feGaussianBlur stdDeviation="2"/>
<feComposite in2="hardAlpha" operator="arithmetic" k2="-1" k3="1"/>
<feColorMatrix type="matrix" values="0 0 0 0 0 0 0 0 0 0 0 0 0 0 0 0 0 0 0.25 0"/>
<feBlend mode="normal" in2="shape" result="effect1_innerShadow_72_6897"/>
</filter>
<clipPath id="clip0_72_6897">
<rect width="96" height="96" fill="white" transform="translate(52 52)"/>
</clipPath>
</defs>
</svg>
