<svg width="40" height="37" viewBox="0 0 40 37" fill="none" xmlns="http://www.w3.org/2000/svg">
<path fill-rule="evenodd" clip-rule="evenodd" d="M0.22837 0.230354C0.0725032 0.387575 0 0.539673 0 0.709267C0 0.87886 0.0725032 1.03096 0.22837 1.18818L0.456739 1.41853H3.73954C5.54509 1.41853 7.04086 1.4488 7.06359 1.48583C7.08625 1.52287 8.42201 5.64545 10.0319 10.6472C11.6418 15.6489 13.3468 20.9447 13.8207 22.4156C14.3733 24.1307 14.7402 25.1483 14.8436 25.2527C15.0047 25.4152 15.0204 25.4155 25.9274 25.4548L36.8498 25.4942L37.1287 25.7088C37.7318 26.1728 37.9967 27.3816 37.6956 28.296C37.5302 28.7984 37.0692 29.2896 36.7052 29.3514C36.5632 29.3755 31.6362 29.4219 25.7564 29.4543L15.0659 29.5134L14.8379 29.7708C14.5352 30.1126 14.5353 30.4353 14.8384 30.741L15.0668 30.9713L18.1784 30.9654C19.8898 30.9621 24.8282 30.9335 29.1527 30.9017L37.0155 30.844L37.5279 30.5896C39.8808 29.4212 39.8346 25.291 37.4566 24.2163C37.2213 24.11 36.858 24.0684 35.8925 24.0374L34.6351 23.9969L37.3167 15.6827C38.7915 11.1099 39.999 7.30466 40 7.22664C40.0026 7.02072 39.7956 6.64993 39.6336 6.57025C39.5567 6.53242 32.9171 6.48388 24.8489 6.46221L10.2039 6.4228L9.20736 3.34931C8.47686 1.09653 8.16575 0.239023 8.04223 0.137913C7.88699 0.0108754 7.5808 0 4.16518 0H0.456739L0.22837 0.230354ZM19.3037 11.8939L19.5321 12.1242V15.9979V19.8716L19.3037 20.102C19.0595 20.3483 18.7808 20.3959 18.4918 20.2407C18.1249 20.0436 18.1309 20.1134 18.1283 15.9747L18.1258 12.0504L18.3176 11.857C18.5947 11.5774 19.0053 11.5928 19.3037 11.8939ZM24.8491 11.7447C25.2271 11.9487 25.2355 12.0393 25.2355 15.9428C25.2355 18.3471 25.2067 19.6828 25.1515 19.8425C24.9332 20.4742 24.0916 20.4984 23.8377 19.8803C23.7715 19.7191 23.7525 18.6164 23.7684 15.8511L23.7901 12.0438L24.0093 11.8537C24.2415 11.6522 24.5934 11.6065 24.8491 11.7447ZM30.6585 11.906L30.8607 12.1484V16.01V19.8716L30.6324 20.102C30.4765 20.2592 30.3257 20.3323 30.1576 20.3323C29.9895 20.3323 29.8387 20.2592 29.6828 20.102L29.4544 19.8716V15.9753V12.079L29.6604 11.8712C29.962 11.567 30.3881 11.5818 30.6585 11.906ZM18.3455 31.4462C17.8417 31.5319 17.0734 31.9613 16.7571 32.3342C15.9985 33.228 15.834 34.4849 16.3435 35.4923C16.5857 35.9711 17.1633 36.5425 17.6472 36.7819C18.0331 36.9729 18.1773 36.9994 18.829 36.9998C19.4705 37 19.6316 36.9715 20.0162 36.7897C20.583 36.5216 21.084 36.0164 21.3745 35.4197C21.5753 35.007 21.6025 34.8661 21.6025 34.2402C21.6025 33.5954 21.5785 33.4801 21.3452 33.0021C20.7902 31.8648 19.5788 31.2365 18.3455 31.4462ZM34.5539 31.4484C33.7006 31.6183 32.9309 32.2091 32.5348 32.9984C32.3299 33.4066 32.3063 33.5313 32.3062 34.2024C32.3061 34.8492 32.3345 35.0122 32.5147 35.4C32.7808 35.9727 33.3247 36.5212 33.8924 36.7897C34.2769 36.9715 34.4385 37.0001 35.0797 37C35.745 36.9999 35.8686 36.976 36.2733 36.7694C36.5215 36.6427 36.8844 36.3667 37.0796 36.1561C38.6117 34.504 37.7321 31.8653 35.5114 31.4512C35.0012 31.356 35.0176 31.3561 34.5539 31.4484Z" fill="white"/>
</svg>
