<svg width="24" height="24" viewBox="0 0 24 24" fill="none" xmlns="http://www.w3.org/2000/svg">
<path fill-rule="evenodd" clip-rule="evenodd" d="M8.37403 0.0505776C4.83315 0.190847 3.63599 0.578325 2.13379 2.07014C0.980447 3.21556 0.4066 4.42625 0.129479 6.29871C-0.0408528 7.44992 -0.0440822 16.6076 0.125442 17.7001C0.436929 19.7067 1.0546 21.0083 2.19261 22.0561C3.45285 23.2166 4.66074 23.7151 6.63761 23.8908C8.24325 24.0335 15.5628 24.0374 17.2591 23.8964C20.6008 23.6189 22.7104 21.9781 23.5386 19.0123C24.1221 16.9229 24.1633 7.39958 23.5985 5.19924C22.8462 2.26943 20.6778 0.476711 17.5241 0.177422C15.7759 0.0115753 11.0239 -0.0542775 8.37403 0.0505776ZM18.4956 1.59343C20.4897 2.16238 21.8917 3.58903 22.3803 5.54644C22.6152 6.48748 22.7058 8.87808 22.6674 13.127C22.6276 17.5342 22.5323 18.3727 21.9201 19.7025C21.3224 21.0008 20.0525 22.0147 18.4648 22.4616C17.7863 22.6525 17.1784 22.6727 12.0644 22.6738C7.7025 22.6747 6.25693 22.6391 5.72702 22.5173C3.34087 21.969 1.88216 20.352 1.44762 17.7731C1.17984 16.1836 1.25849 6.57312 1.5476 5.57457C2.27771 3.05214 3.89846 1.70326 6.52886 1.42897C6.97285 1.38256 9.69736 1.35803 12.5833 1.37411C17.037 1.39911 17.9311 1.43233 18.4956 1.59343ZM18.1568 4.50275C17.7204 4.6899 17.5422 4.98571 17.5422 5.52318C17.5422 6.02304 17.8984 6.48863 18.3584 6.59002C19.4145 6.82276 20.1478 5.5866 19.4162 4.80713C19.0261 4.39153 18.6359 4.29721 18.1568 4.50275ZM10.5806 6.47463C9.05397 6.86292 7.57184 8.04456 6.85361 9.4461C5.75781 11.5843 6.12235 14.1154 7.78034 15.8814C8.48831 16.6355 9.0188 16.9892 9.995 17.3579C13.3321 18.6185 17.0004 16.4068 17.5484 12.804C17.8588 10.7634 16.8748 8.5119 15.1531 7.32308C13.9222 6.47313 11.9934 6.11528 10.5806 6.47463ZM13.5464 7.92246C14.4056 8.24513 15.4719 9.22621 15.8615 10.0527C16.718 11.8695 16.33 13.9114 14.8706 15.2673C13.9916 16.084 13.1828 16.3987 11.949 16.4039C9.96537 16.4123 8.38371 15.277 7.75036 13.3901C7.44475 12.4796 7.44383 11.5783 7.74748 10.6736C8.16252 9.43707 8.8322 8.65136 9.95949 8.07813C11.0613 7.51774 12.3227 7.463 13.5464 7.92246Z" fill="white" />
</svg>
