<svg width="28" height="16" viewBox="0 0 28 16" fill="none" xmlns="http://www.w3.org/2000/svg">
<path fill-rule="evenodd" clip-rule="evenodd" d="M2.63382 0.0406462C2.54008 0.0626779 2.40979 0.106888 2.34426 0.138879C2.16668 0.225583 1.04286 1.17984 0.937536 1.31724C0.665116 1.67266 0.634834 2.14495 0.859838 2.52924C0.914714 2.62295 1.11002 2.84249 1.4576 3.20113C1.98775 3.74816 3.07706 4.87037 3.76189 5.57503C3.97438 5.79367 4.43581 6.26914 4.78728 6.63163C5.13875 6.99412 5.73621 7.60542 6.11495 7.99011C6.49372 8.37477 6.84557 8.73243 6.89685 8.7849C7.07838 8.97063 10.8741 12.8274 11.7443 13.7104C12.5518 14.5296 12.6574 14.6287 12.9777 14.8667C13.1704 15.0099 13.3811 15.1501 13.446 15.1783C13.9403 15.3932 15.0936 15.3469 15.4999 14.9984C15.6295 14.8871 16.0683 14.4233 18.01 12.3454C18.7003 11.6066 19.7469 10.4883 19.791 10.4423C19.8187 10.4136 20.0609 10.1547 20.3294 9.86697C20.5979 9.57928 20.9287 9.22621 21.0645 9.08237C21.2768 8.85772 23.6566 6.31499 25.0389 4.83602C25.2825 4.57537 25.8146 4.00788 26.2214 3.57492C26.6281 3.14195 27.0013 2.73163 27.0506 2.66309C27.196 2.46131 27.2532 2.27244 27.2516 2C27.2489 1.53773 26.8734 1.01776 26.2333 0.537123C25.9892 0.353902 25.7313 0.177335 25.6601 0.144758C25.2367 -0.0489453 24.7147 -0.0260139 24.3187 0.203677C24.1301 0.313082 23.969 0.475443 22.6956 1.83948C21.7682 2.83281 19.0346 5.75519 18.3072 6.53096C18.1914 6.65443 17.2208 7.69194 16.1502 8.83659C15.0796 9.98123 14.1932 10.9152 14.1803 10.9122C14.1675 10.9091 13.8371 10.5771 13.446 10.1744C12.235 8.92748 10.0204 6.64466 7.4914 4.03638C5.20147 1.67463 4.54986 1.00274 4.07166 0.510154C3.95956 0.394681 3.8226 0.271174 3.76728 0.235688C3.42369 0.0152459 3.03 -0.0525021 2.63382 0.0406462Z" fill="white"/>
</svg>
