<svg width="18" height="10" viewBox="0 0 18 10" fill="none" xmlns="http://www.w3.org/2000/svg">
<path fill-rule="evenodd" clip-rule="evenodd" d="M1.13117 0.0270975C1.06627 0.0417853 0.97607 0.0712585 0.930704 0.0925858C0.807758 0.150389 0.23047 0.59073 0.157555 0.68233C-0.0310443 0.919273 -0.0520088 1.23413 0.103764 1.49033C0.141755 1.5528 0.276966 1.69916 0.517597 1.93826C0.884628 2.30294 1.63877 3.05108 2.11288 3.52086C2.25998 3.66662 2.57944 3.9836 2.82276 4.22526C3.06609 4.46691 3.47971 4.87445 3.74192 5.13091C4.00415 5.38735 4.24773 5.62579 4.28324 5.66077C4.40891 5.78459 7.03671 8.35577 7.63917 8.94441C8.19817 9.49058 8.27133 9.55662 8.49306 9.71531C8.62643 9.81076 8.77233 9.90426 8.81726 9.92306C9.15947 10.0663 9.58287 10.0057 9.86417 9.77334C9.95391 9.69919 10.2577 9.38999 11.6019 8.00469C12.0798 7.51219 12.8044 6.76665 12.835 6.73599C12.8541 6.71681 13.0218 6.5442 13.2077 6.35241C13.3935 6.16062 13.6226 5.92523 13.7166 5.82934C13.8635 5.67957 15.5111 3.98442 16.4681 2.99844C16.6367 2.82467 17.0051 2.44634 17.2867 2.15771C17.5683 1.86906 17.8267 1.59551 17.8608 1.54982C17.9614 1.4153 18.0011 1.28938 18 1.10776C17.9981 0.799581 17.9124 0.678508 17.4692 0.358082C17.3003 0.235935 17.1217 0.118223 17.0725 0.0965053C16.7793 -0.0326302 16.4179 -0.0173426 16.1438 0.135784C16.0132 0.208721 15.9017 0.316962 15.0201 1.22632C14.378 1.88854 12.4856 3.83679 11.982 4.35397C11.9018 4.43628 11.2298 5.12796 10.4886 5.89106C9.74746 6.65416 9.13378 7.27682 9.1249 7.27477C9.11602 7.27272 8.88726 7.0514 8.61653 6.78296C7.77811 5.95165 6.24493 4.42977 4.49411 2.69092C2.90877 1.11642 2.45765 0.668493 2.1266 0.340102C2.04898 0.26312 1.95417 0.180782 1.91587 0.157126C1.678 0.0101639 1.40545 -0.0350014 1.13117 0.0270975Z" fill="white"/>
</svg>
