<svg width="28" height="16" viewBox="0 0 28 16" fill="none" xmlns="http://www.w3.org/2000/svg">
<path fill-rule="evenodd" clip-rule="evenodd" d="M25.3279 15.2676C25.4216 15.2455 25.5519 15.2013 25.6174 15.1693C25.795 15.0826 26.9188 14.1284 27.0241 13.991C27.2966 13.6356 27.3268 13.1633 27.1018 12.779C27.047 12.6853 26.8517 12.4657 26.5041 12.1071C25.9739 11.5601 24.8846 10.4379 24.1998 9.7332C23.9873 9.51455 23.5259 9.03908 23.1744 8.6766C22.8229 8.31411 22.2255 7.70281 21.8467 7.31812C21.4679 6.93345 21.1161 6.5758 21.0648 6.52333C20.8833 6.33759 17.0876 2.48083 16.2174 1.59787C15.4099 0.778617 15.3042 0.679548 14.984 0.441509C14.7913 0.298334 14.5806 0.158089 14.5157 0.129885C14.0214 -0.0849295 12.8681 -0.0387173 12.4618 0.309856C12.3321 0.421082 11.8933 0.884878 9.95171 2.96283C9.2614 3.70159 8.21478 4.81989 8.17062 4.86588C8.143 4.89465 7.90074 5.15357 7.63226 5.44126C7.36381 5.72894 7.03299 6.08202 6.89713 6.22586C6.6849 6.45051 4.30507 8.99324 2.92276 10.4722C2.67915 10.7329 2.14704 11.3004 1.74029 11.7333C1.33355 12.1663 0.960377 12.5766 0.911026 12.6451C0.765701 12.8469 0.708448 13.0358 0.710033 13.3082C0.712738 13.7705 1.08829 14.2905 1.72841 14.7711C1.97243 14.9543 2.23036 15.1309 2.30153 15.1635C2.72494 15.3572 3.24701 15.3342 3.64298 15.1046C3.83157 14.9951 3.99268 14.8328 5.26611 13.4687C6.19347 12.4754 8.92702 9.55304 9.65449 8.77727C9.77026 8.6538 10.7409 7.61628 11.8115 6.47164C12.8821 5.32699 13.7685 4.393 13.7813 4.39608C13.7942 4.39915 14.1246 4.73113 14.5157 5.13379C15.7267 6.38075 17.9413 8.66357 20.4703 11.2719C22.7602 13.6336 23.4118 14.3055 23.89 14.7981C24.0021 14.9135 24.1391 15.0371 24.1944 15.0725C24.538 15.293 24.9317 15.3607 25.3279 15.2676Z" fill="#736565"/>
</svg>
