<svg width="18" height="10" viewBox="0 0 18 10" fill="none" xmlns="http://www.w3.org/2000/svg">
<path fill-rule="evenodd" clip-rule="evenodd" d="M1.13117 9.9729C1.06627 9.95821 0.97607 9.92874 0.930704 9.90741C0.807758 9.84961 0.23047 9.40927 0.157555 9.31767C-0.0310443 9.08073 -0.0520088 8.76587 0.103764 8.50967C0.141755 8.4472 0.276966 8.30084 0.517597 8.06174C0.884628 7.69706 1.63877 6.94892 2.11288 6.47914C2.25998 6.33338 2.57944 6.0164 2.82276 5.77474C3.06609 5.53309 3.47971 5.12555 3.74192 4.86909C4.00415 4.61265 4.24773 4.37421 4.28324 4.33923C4.40891 4.21541 7.03671 1.64423 7.63917 1.05559C8.19817 0.509424 8.27133 0.443377 8.49306 0.284685C8.62643 0.189236 8.77233 0.0957384 8.81726 0.0769358C9.15947 -0.0662737 9.58287 -0.00572395 9.86417 0.226659C9.95391 0.300809 10.2577 0.610006 11.6019 1.99531C12.0798 2.48781 12.8044 3.23335 12.835 3.26401C12.8541 3.28319 13.0218 3.4558 13.2077 3.64759C13.3935 3.83938 13.6226 4.07477 13.7166 4.17066C13.8635 4.32043 15.5111 6.01558 16.4681 7.00156C16.6367 7.17533 17.0051 7.55366 17.2867 7.84229C17.5683 8.13094 17.8267 8.40449 17.8608 8.45018C17.9614 8.5847 18.0011 8.71062 18 8.89224C17.9981 9.20042 17.9124 9.32149 17.4692 9.64192C17.3003 9.76407 17.1217 9.88178 17.0725 9.90349C16.7793 10.0326 16.4179 10.0173 16.1438 9.86422C16.0132 9.79128 15.9017 9.68304 15.0201 8.77368C14.378 8.11146 12.4856 6.16321 11.982 5.64603C11.9018 5.56372 11.2298 4.87204 10.4886 4.10894C9.74746 3.34584 9.13378 2.72318 9.1249 2.72523C9.11602 2.72728 8.88726 2.9486 8.61653 3.21704C7.77811 4.04835 6.24493 5.57023 4.49411 7.30908C2.90877 8.88358 2.45765 9.33151 2.1266 9.6599C2.04898 9.73688 1.95417 9.81922 1.91587 9.84287C1.678 9.98984 1.40545 10.035 1.13117 9.9729Z" fill="#736565"/>
</svg>
