<svg width="38" height="38" viewBox="0 0 38 38" fill="none" xmlns="http://www.w3.org/2000/svg">
<g clip-path="url(#clip0_215_481)">
<path d="M36.2878 27.6803L30.6529 22.8888C30.6268 22.8668 30.5993 22.8465 30.5706 22.8282C29.0923 21.8872 27.1942 22.0956 25.9548 23.3347L22.8826 26.4067C22.6698 26.6198 22.3523 26.6827 22.074 26.5679C18.6048 25.1328 15.755 22.9723 13.6035 20.1471C11.9629 17.9927 11.3714 16.2808 11.2934 16.0395C11.2842 15.9879 11.2694 15.9366 11.2485 15.8865C11.1334 15.6081 11.1963 15.2913 11.4097 15.0785L14.4816 12.0056C15.721 10.7662 15.9292 8.86816 14.9881 7.38987C14.9806 7.37799 14.9728 7.36639 14.9647 7.35479L10.8954 1.69996C9.6151 -0.286261 6.82639 -0.586325 5.1527 1.08708L4.5375 1.70228C4.53721 1.70286 4.53663 1.70344 4.53605 1.70373L2.33964 3.90014C-0.279474 6.51954 -0.707971 10.4555 1.10082 15.2832C2.65014 19.4185 5.75167 23.9444 9.83399 28.0267C14.0129 32.2056 18.6611 35.3645 22.9223 36.9217C27.14 38.4626 31.6265 38.6525 34.8019 35.4767L36.8734 33.4056C38.5395 31.7391 38.2488 28.9687 36.2878 27.6803ZM29.7333 24.0549L35.3632 28.8423C35.389 28.8643 35.4166 28.8846 35.4453 28.9029C36.6478 29.6685 36.8299 31.3501 35.8236 32.3561L35.6699 32.51L26.0676 25.3207L27.0043 24.3842C27.7364 23.6519 28.852 23.5194 29.7333 24.0549ZM9.6554 2.5155C9.66294 2.52738 9.67077 2.53927 9.67888 2.55058L13.7464 8.20338C14.299 9.08792 14.1711 10.2171 13.4321 10.9561L12.5244 11.8642L6.02796 2.31082L6.2022 2.13658C7.21256 1.12622 8.89263 1.31727 9.6554 2.5155ZM23.4314 35.5275C19.3691 34.0431 14.9128 31.0065 10.8835 26.9772C6.94758 23.0416 3.96694 18.7036 2.49039 14.7625C1.38204 11.8041 0.638404 7.70037 3.38914 4.94993L4.95962 3.37916L11.4561 12.9325L10.3605 14.0287C9.73716 14.6508 9.54117 15.5716 9.85225 16.3915C10.0865 17.3529 11.1644 19.3484 12.2519 20.8188C13.8522 22.9828 16.7569 25.9744 21.5066 27.9395C22.3413 28.2848 23.2931 28.0952 23.9321 27.4565L25.0074 26.3809L34.6097 33.5702L33.7524 34.4272C30.8037 37.3763 26.5123 36.6532 23.4314 35.5275Z" fill="#BABABA"/>
</g>
<defs>
<clipPath id="clip0_215_481">
<rect width="38" height="38" fill="white"/>
</clipPath>
</defs>
</svg>
