<svg width="32" height="32" viewBox="0 0 32 32" fill="none" xmlns="http://www.w3.org/2000/svg">
<path d="M16 0C9.38281 0 4 5.38344 4 12C4 20.8529 15.0716 31.375 15.543 31.819C15.6719 31.9394 15.8359 32 16 32C16.1641 32 16.3281 31.9394 16.4571 31.819C16.9284 31.375 28 20.8529 28 12C28 5.38344 22.6172 0 16 0ZM16 30.4004C13.9049 28.3086 5.33331 19.3021 5.33331 12C5.33331 6.1185 10.1185 1.33331 16 1.33331C21.8815 1.33331 26.6667 6.1185 26.6667 12C26.6667 19.3021 18.0951 28.3086 16 30.4004Z" fill="#BABABA"/>
<path d="M15.9999 5.33331C12.3241 5.33331 9.33325 8.32419 9.33325 12C9.33325 15.6758 12.3242 18.6667 15.9999 18.6667C19.6757 18.6667 22.6666 15.6758 22.6666 12C22.6666 8.32419 19.6758 5.33331 15.9999 5.33331ZM15.9999 17.3333C13.0585 17.3333 10.6666 14.9408 10.6666 12C10.6666 9.05925 13.0586 6.66669 15.9999 6.66669C18.9413 6.66669 21.3333 9.05925 21.3333 12C21.3333 14.9408 18.9414 17.3333 15.9999 17.3333Z" fill="#BABABA"/>
</svg>
