<svg width="108" height="114" viewBox="0 0 108 114" fill="none" xmlns="http://www.w3.org/2000/svg">
<g filter="url(#filter0_d_72_6827)">
<circle cx="54" cy="50" r="45.5" stroke="#F5EDE6" stroke-width="9" shape-rendering="crispEdges"/>
</g>
<g clip-path="url(#clip0_72_6827)">
<path d="M68.9856 48.7543L46.1286 35.8971C45.6857 35.6486 45.1457 35.6543 44.7086 35.9086C44.2686 36.1657 44 36.6343 44 37.1429V62.8571C44 63.3656 44.2686 63.8342 44.7086 64.0914C44.9314 64.2199 45.18 64.2856 45.4286 64.2856C45.6686 64.2856 45.9114 64.2256 46.1286 64.1028L68.9856 51.2457C69.4342 50.9914 69.7142 50.5171 69.7142 50C69.7142 49.4828 69.4342 49.0085 68.9856 48.7543Z" fill="white"/>
</g>
<defs>
<filter id="filter0_d_72_6827" x="0" y="0" width="108" height="114" filterUnits="userSpaceOnUse" color-interpolation-filters="sRGB">
<feFlood flood-opacity="0" result="BackgroundImageFix"/>
<feColorMatrix in="SourceAlpha" type="matrix" values="0 0 0 0 0 0 0 0 0 0 0 0 0 0 0 0 0 0 127 0" result="hardAlpha"/>
<feOffset dy="10"/>
<feGaussianBlur stdDeviation="2"/>
<feComposite in2="hardAlpha" operator="out"/>
<feColorMatrix type="matrix" values="0 0 0 0 0 0 0 0 0 0 0 0 0 0 0 0 0 0 0.25 0"/>
<feBlend mode="normal" in2="BackgroundImageFix" result="effect1_dropShadow_72_6827"/>
<feBlend mode="normal" in="SourceGraphic" in2="effect1_dropShadow_72_6827" result="shape"/>
</filter>
<clipPath id="clip0_72_6827">
<rect width="28.5714" height="28.5714" fill="white" transform="translate(42.5714 35.7142)"/>
</clipPath>
</defs>
</svg>
