<svg width="24" height="24" viewBox="0 0 24 24" fill="none" xmlns="http://www.w3.org/2000/svg">
<g clip-path="url(#clip0_72_6990)">
<path d="M22.3636 9.81818H14.1818V1.63636C14.1818 0.733088 13.4487 0 12.5454 0H11.4545C10.5513 0 9.81818 0.733088 9.81818 1.63636V9.81818H1.63636C0.733088 9.81818 0 10.5513 0 11.4545V12.5454C0 13.4487 0.733088 14.1818 1.63636 14.1818H9.81818V22.3636C9.81818 23.2668 10.5513 23.9999 11.4545 23.9999H12.5454C13.4487 23.9999 14.1818 23.2668 14.1818 22.3636V14.1818H22.3636C23.2668 14.1818 23.9999 13.4487 23.9999 12.5454V11.4545C23.9999 10.5513 23.2668 9.81818 22.3636 9.81818Z" fill="#736565"/>
</g>
<defs>
<clipPath id="clip0_72_6990">
<rect width="24" height="24" fill="white"/>
</clipPath>
</defs>
</svg>
