<svg width="40" height="40" viewBox="0 0 40 40" fill="none" xmlns="http://www.w3.org/2000/svg">
<g clip-path="url(#clip0_179_14299)">
<path d="M33.8282 6.24911C33.1177 5.53857 32.0011 5.48782 31.1891 6.09686L20.0741 14.7757C19.6681 15.1309 19.3636 15.6385 19.3128 16.146C19.262 16.7043 19.4651 17.2626 19.8203 17.6686L20.3786 18.2776L13.2732 23.9112C13.3239 17.5163 13.7299 9.49732 15.2525 3.81296C15.5063 2.95015 15.3033 2.0366 14.7958 1.32605C14.2882 0.615504 13.4762 0.158725 12.5626 0.107972L10.3802 0.00646519C8.80688 -0.0950413 7.48729 1.02153 7.28428 2.54413C6.62449 7.21343 5.35566 19.3435 7.33503 30.4584C7.43654 30.9659 7.63955 31.4735 7.99483 31.8795C4.89888 35.686 5.00038 39.3402 5.00038 39.4925C5.00038 39.7463 5.25415 40 5.50792 40C5.81244 40 6.01545 39.7463 6.01545 39.4925C6.01545 39.4417 5.91394 36.0413 8.75613 32.59C9.00989 32.7423 9.2129 32.8438 9.51742 32.8946C9.77119 32.9961 10.0757 32.9961 10.3295 32.9961C10.9893 32.9961 11.6491 32.7931 12.1566 32.3363C12.9179 31.7272 13.3239 30.8644 13.3239 29.8494C13.3239 29.4941 13.3239 29.1388 13.3239 28.7328L33.5237 12.2888C34.4373 11.5782 34.9448 10.5124 34.9956 9.34506C35.0463 8.17774 34.6403 7.06117 33.8282 6.24911ZM12.3089 29.8494C12.3089 30.5092 12.0551 31.0675 11.5476 31.4735C11.04 31.8795 10.3802 31.981 9.77119 31.8287C9.46667 31.7272 9.2129 31.6257 9.00989 31.4227C8.65462 31.1182 8.45161 30.7122 8.3501 30.2554C6.37072 19.2927 7.69031 7.31493 8.29935 2.69639C8.45161 1.73208 9.26366 1.02153 10.228 1.02153C10.2787 1.02153 10.2787 1.02153 10.3295 1.02153L12.5119 1.12304C13.1209 1.17379 13.6284 1.42756 13.9837 1.93509C14.339 2.39187 14.4405 3.00091 14.2882 3.55919C12.2073 11.3244 12.1566 23.353 12.3089 29.8494ZM32.8639 11.4767L13.2732 27.4132C13.2732 26.7027 13.2732 25.9921 13.2732 25.2308L21.3937 18.7344C21.4952 18.6329 21.5459 18.5314 21.5967 18.3791C21.5967 18.2269 21.5459 18.1254 21.4952 18.0239L20.6324 17.0088C20.4294 16.8058 20.3786 16.552 20.3786 16.2475C20.3786 15.9937 20.5309 15.74 20.7339 15.5877L31.8489 6.90891C32.2549 6.60439 32.8132 6.65514 33.1684 7.01041C33.7775 7.61945 34.082 8.48226 34.082 9.34506C33.9297 10.1571 33.5237 10.9692 32.8639 11.4767Z" fill="#BABABA"/>
<path d="M10.3297 30.1539C10.7501 30.1539 11.091 29.813 11.091 29.3926C11.091 28.9721 10.7501 28.6313 10.3297 28.6313C9.9092 28.6313 9.56836 28.9721 9.56836 29.3926C9.56836 29.813 9.9092 30.1539 10.3297 30.1539Z" fill="#BABABA"/>
</g>
<defs>
<clipPath id="clip0_179_14299">
<rect width="40" height="40" fill="white"/>
</clipPath>
</defs>
</svg>
