<svg width="36" height="36" viewBox="0 0 36 36" fill="none" xmlns="http://www.w3.org/2000/svg">
<path d="M2.37536 23.7426L2.37531 23.7426C1.84329 23.212 1.54998 22.5048 1.54998 21.747C1.54998 20.9953 1.84317 20.288 2.37535 19.7559L2.34 19.7205L2.37536 19.7559L19.0583 3.07288C20.042 2.09074 21.3462 1.54998 22.7355 1.54998H32.25C33.4629 1.54998 34.45 2.53707 34.45 3.74998V13.2645V13.2924C34.4428 14.6712 33.9027 15.9661 32.9287 16.9402L16.2442 33.6246C15.1851 34.6837 13.3253 34.691 12.2573 33.6246L2.37536 23.7426ZM32.25 -0.05H22.7355C20.9192 -0.05 19.2115 0.657267 17.9271 1.94162L1.24412 18.6247C0.409754 19.459 -0.05 20.5683 -0.05 21.753C-0.05 22.9318 0.409779 24.041 1.24412 24.8754L11.1246 34.7559C11.959 35.5902 13.0683 36.05 14.253 36.05C15.4318 36.05 16.541 35.5902 17.3753 34.7559L34.0583 18.0729C35.3427 16.7885 36.05 15.0807 36.05 13.2645V3.74998C36.05 1.65539 34.3446 -0.05 32.25 -0.05Z" fill="white" stroke="white" stroke-width="0.1"/>
</svg>
