<svg width="50" height="50" viewBox="0 0 50 50" fill="none" xmlns="http://www.w3.org/2000/svg">
<path d="M17.8625 16.9704L19.8093 15.0235L19 14.136L17.1414 15.9946L17.8625 16.9704Z" fill="white"/>
<path d="M16.2023 14.7243L17.9468 12.9805L17.1375 12.093L15.4812 13.7485L16.2023 14.7243Z" fill="white"/>
<path d="M14.5422 12.478L16.0836 10.9366L15.2742 10.0491L13.8211 11.5022L14.5422 12.478Z" fill="white"/>
<path d="M12.882 10.2321L14.2203 8.89307L13.4109 8.00635L12.1609 9.25635L12.882 10.2321Z" fill="white"/>
<path d="M23.4812 19.0508L22.7258 18.2227L21.35 19.5984C22.1109 19.65 22.8547 19.4547 23.4812 19.0508Z" fill="white"/>
<path d="M19.6985 19.0407L21.6719 17.0665L20.8625 16.179L18.8063 18.2352C19.0563 18.5594 19.3617 18.825 19.6985 19.0407Z" fill="white"/>
<path d="M10.4945 4.80693L9.68512 3.91943L8.84059 4.76475L9.56169 5.73975L10.4945 4.80693Z" fill="white"/>
<path d="M20.5711 43.9649C19.9297 43.2204 19.568 42.2516 19.5266 41.1625C19.486 40.1032 19.1743 39.0657 18.625 38.1625C17.7485 36.7211 17.8782 34.7118 18.9274 33.4891L19.6453 32.6516C20.2633 31.9305 21.0297 31.3735 21.8782 31.0008L20.0985 30.704C19.7071 30.6391 19.336 30.5118 18.9907 30.3391L16.7407 33.1032C15.7977 34.2618 14.4032 35.0118 12.9157 35.161C9.93988 35.4571 7.493 37.6977 7.09691 40.4875C6.81097 42.5032 7.47191 44.4665 8.91097 45.8743C10.35 47.2821 12.3321 47.8977 14.3461 47.5696C15.3571 47.4032 16.3243 46.9727 17.143 46.3258C18.0821 45.5844 19.4219 45.6594 20.2586 46.4977L21.161 47.4C21.3266 47.5657 21.5461 47.6563 21.7805 47.6563C22.2633 47.6563 22.6563 47.2633 22.6563 46.7805C22.6563 46.525 22.5641 46.2766 22.3969 46.0829L20.5711 43.9649ZM13.2813 45.3125C11.1243 45.3125 9.37503 43.5633 9.37503 41.4063C9.37503 39.2493 11.1243 37.5 13.2813 37.5C15.4383 37.5 17.1875 39.2493 17.1875 41.4063C17.1875 43.5633 15.4383 45.3125 13.2813 45.3125Z" fill="white"/>
<path d="M41.3922 8.03345C41.9125 7.2272 42.1875 6.29439 42.1875 5.33423C42.1875 4.4147 41.9164 3.53657 41.4132 2.79126L26.9609 20.5475L30.6843 24.6311L41.3922 8.03345Z" fill="white"/>
<path d="M12.3578 6.8499L11.5484 5.9624L10.5007 7.01006L11.2218 7.98584L12.3578 6.8499Z" fill="white"/>
<path d="M47.5625 47.3664L44.0984 45.9813C42.9797 45.5336 42.3906 44.3086 42.7281 43.1328C42.9664 42.3023 43.0281 41.4367 42.9133 40.5602C42.5438 37.7336 40.1227 35.4656 37.1555 35.1688C35.6289 35.0156 34.2039 34.2406 33.2453 33.0422L33.0586 32.8078C32.3961 31.9812 32.0312 30.9406 32.0312 29.8797V28.7297C32.0312 28.5344 31.9586 28.3484 31.8273 28.2039L24.5406 20.2125C23.6812 20.8312 22.65 21.1711 21.5836 21.1711C21.4578 21.1711 21.3313 21.1664 21.2047 21.157C19.7305 21.0469 18.382 20.3016 17.5031 19.1141L6.78437 4.61016L8.63047 2.76406C8.38125 2.49844 8.03203 2.34375 7.66641 2.34375C7.40547 2.34375 7.15312 2.42031 6.93516 2.56484L5.99375 3.19297C5.66484 3.41172 5.46875 3.77891 5.46875 4.17422C5.46875 4.37656 5.52109 4.57656 5.62031 4.75234L18.6977 28C19.0477 28.6227 19.6516 29.0461 20.3547 29.1625L24.8945 29.9195C27.2414 30.3102 29.3867 31.5211 30.9359 33.3281L31.0711 33.4844C32.1125 34.7 32.282 36.7445 31.4508 38.043C30.643 39.3055 30.3242 40.7727 30.5297 42.2852C30.8961 44.9852 33.0281 47.1609 35.7141 47.5773C36.0461 47.6297 36.3844 47.6562 36.7188 47.6562H47.5062C47.5891 47.6562 47.6562 47.5891 47.6562 47.5062C47.6562 47.4445 47.6195 47.3891 47.5625 47.3664ZM25 28.125C24.1367 28.125 23.4375 27.4258 23.4375 26.5625C23.4375 25.6992 24.1367 25 25 25C25.8633 25 26.5625 25.6992 26.5625 26.5625C26.5625 27.4258 25.8633 28.125 25 28.125ZM36.7188 45.3125C34.5617 45.3125 32.8125 43.5633 32.8125 41.4062C32.8125 39.2492 34.5617 37.5 36.7188 37.5C38.8758 37.5 40.625 39.2492 40.625 41.4062C40.625 43.5633 38.8758 45.3125 36.7188 45.3125Z" fill="white"/>
</svg>
