<svg width="86" height="86" viewBox="0 0 86 86" fill="none" xmlns="http://www.w3.org/2000/svg">
<g clip-path="url(#clip0_110_2729)" filter="url(#filter0_i_110_2729)">
<path d="M72.0035 24.4347L77.7834 18.6584C79.1845 17.2609 79.1845 14.9927 77.7834 13.5916C76.3823 12.1905 74.1177 12.1905 72.7166 13.5916L66.9367 19.3679C61.2965 14.706 54.2696 11.6602 46.5833 10.9327V7.16667H53.75C55.7316 7.16667 57.3333 5.56133 57.3333 3.58333C57.3333 1.60533 55.7316 0 53.75 0H32.25C30.2684 0 28.6667 1.60533 28.6667 3.58333C28.6667 5.56133 30.2684 7.16667 32.25 7.16667H39.4167V10.9327C20.3462 12.7423 5.375 28.8387 5.375 48.375C5.375 69.1225 22.2525 86 43 86C63.7475 86 80.625 69.1225 80.625 48.375C80.625 39.2877 77.3857 30.9457 72.0035 24.4347ZM55.9 65.575C55.255 66.0587 54.4989 66.2917 53.7536 66.2917C52.6642 66.2917 51.5892 65.7972 50.8833 64.8583L40.1333 50.525C39.6675 49.9051 39.4167 49.1526 39.4167 48.375V28.6667C39.4167 26.6851 41.022 25.0833 43 25.0833C44.978 25.0833 46.5833 26.6851 46.5833 28.6667V47.1817L56.6167 60.5583C57.8027 62.1422 57.4838 64.3889 55.9 65.575Z" fill="#6E6D6D"/>
</g>
<defs>
<filter id="filter0_i_110_2729" x="0" y="0" width="86" height="90" filterUnits="userSpaceOnUse" color-interpolation-filters="sRGB">
<feFlood flood-opacity="0" result="BackgroundImageFix"/>
<feBlend mode="normal" in="SourceGraphic" in2="BackgroundImageFix" result="shape"/>
<feColorMatrix in="SourceAlpha" type="matrix" values="0 0 0 0 0 0 0 0 0 0 0 0 0 0 0 0 0 0 127 0" result="hardAlpha"/>
<feOffset dy="4"/>
<feGaussianBlur stdDeviation="2"/>
<feComposite in2="hardAlpha" operator="arithmetic" k2="-1" k3="1"/>
<feColorMatrix type="matrix" values="0 0 0 0 0 0 0 0 0 0 0 0 0 0 0 0 0 0 0.25 0"/>
<feBlend mode="normal" in2="shape" result="effect1_innerShadow_110_2729"/>
</filter>
<clipPath id="clip0_110_2729">
<rect width="86" height="86" fill="white"/>
</clipPath>
</defs>
</svg>
